<?xml version="1.0" encoding="UTF-8" standalone="no"?>
<svg
   xmlns:svg="http://www.w3.org/2000/svg"
   xmlns="http://www.w3.org/2000/svg"
   xmlns:xlink="http://www.w3.org/1999/xlink"
   xmlns:sodipodi="http://sodipodi.sourceforge.net/DTD/sodipodi-0.dtd"
   xmlns:inkscape="http://www.inkscape.org/namespaces/inkscape"
   width="210mm"
   height="297mm"
   viewBox="0 0 210 297"
   version="1.1"
   id="svg6"
   inkscape:version="1.1-dev (48d18c81, 2020-07-08)"
   sodipodi:docname="zizou.svg">
  <defs
     id="defs2">
    <linearGradient
       inkscape:collect="always"
       id="linearGradient3704">
      <stop
         style="stop-color:#d71818;stop-opacity:1;"
         offset="0"
         id="stop3700" />
      <stop
         style="stop-color:#d71818;stop-opacity:0;"
         offset="1"
         id="stop3702" />
    </linearGradient>
    <linearGradient
       inkscape:collect="always"
       id="linearGradient3506">
      <stop
         style="stop-color:#4553ff;stop-opacity:1;"
         offset="0"
         id="stop3502" />
      <stop
         style="stop-color:#4553ff;stop-opacity:0;"
         offset="1"
         id="stop3504" />
    </linearGradient>
    <linearGradient
       id="linearGradient3446"
       inkscape:swatch="solid">
      <stop
         style="stop-color:#688fd3;stop-opacity:1;"
         offset="0"
         id="stop3444" />
    </linearGradient>
    <linearGradient
       inkscape:collect="always"
       xlink:href="#linearGradient3506"
       id="linearGradient3508"
       x1="268.75581"
       y1="237.58125"
       x2="337.29634"
       y2="237.58125"
       gradientUnits="userSpaceOnUse"
       gradientTransform="matrix(0.2645821,-8.0715786e-4,8.0715786e-4,0.2645821,-11.962034,0.16137655)" />
    <linearGradient
       inkscape:collect="always"
       xlink:href="#linearGradient3704"
       id="linearGradient3706"
       x1="327.01461"
       y1="419.8115"
       x2="380.10295"
       y2="419.8115"
       gradientUnits="userSpaceOnUse"
       gradientTransform="matrix(-0.25268776,0.07844255,-0.07844255,-0.25268776,205.57354,136.17905)" />
    <filter
       inkscape:collect="always"
       style="color-interpolation-filters:sRGB"
       id="filter4192"
       x="-0.018194865"
       width="1.0363897"
       y="-0.031034118"
       height="1.0620682">
      <feGaussianBlur
         inkscape:collect="always"
         stdDeviation="0.13763158"
         id="feGaussianBlur4194" />
    </filter>
    <filter
       inkscape:collect="always"
       style="color-interpolation-filters:sRGB"
       id="filter4244"
       x="-0.018287551"
       width="1.0365751"
       y="-0.021706554"
       height="1.0434131">
      <feGaussianBlur
         inkscape:collect="always"
         stdDeviation="0.10838259"
         id="feGaussianBlur4246" />
    </filter>
    <filter
       inkscape:collect="always"
       style="color-interpolation-filters:sRGB"
       id="filter4654"
       x="-0.42070396"
       width="1.8414079"
       y="-0.12858714"
       height="1.2571743">
      <feGaussianBlur
         inkscape:collect="always"
         stdDeviation="0.38097566"
         id="feGaussianBlur4656" />
    </filter>
  </defs>
  <sodipodi:namedview
     id="base"
     pagecolor="#ffffff"
     bordercolor="#666666"
     borderopacity="1.0"
     inkscape:pageopacity="0.0"
     inkscape:pageshadow="2"
     inkscape:zoom="1.979899"
     inkscape:cx="206.32366"
     inkscape:cy="263.39728"
     inkscape:document-units="mm"
     inkscape:current-layer="layer1"
     showgrid="false"
     inkscape:window-width="1920"
     inkscape:window-height="1035"
     inkscape:window-x="1440"
     inkscape:window-y="23"
     inkscape:window-maximized="0" />
  <g
     inkscape:label="Layer 1"
     inkscape:groupmode="layer"
     id="layer1">
    <rect
       style="opacity:1;fill:#ffffff;fill-opacity:1;stroke:#ffffff;stroke-width:1.06827;stroke-linecap:round;stroke-linejoin:round;stroke-miterlimit:4;stroke-dasharray:none;stroke-opacity:1"
       id="rect4658"
       width="29.584347"
       height="10.902794"
       x="45.781303"
       y="72.576607"
       transform="matrix(0.95836173,-0.28555699,0.2207092,0.97533966,0,0)"
       inkscape:export-xdpi="320"
       inkscape:export-ydpi="320" />
    <path
       style="fill:none;stroke:#000000;stroke-width:0.264583px;stroke-linecap:butt;stroke-linejoin:miter;stroke-opacity:1"
       d="m 45.124333,65.94437 1.798835,1.128454 1.36873,-0.476624 2.129273,1.032942 c 0.223682,-0.595175 -0.141348,0.376106 -0.515538,1.371748 L 47.49721,69.386213 45.700096,68.82473 c -0.245951,0.804844 -1.200112,1.434938 -2.450777,1.991859 -4.014271,0.266056 -3.6742,1.681355 -6.290893,-2.295926 -0.415107,-1.684129 0.176877,-2.868549 0.459639,-4.2064 l -1.928763,-1.039232 4.7417,-6.245212 4.600025,-9.79443 5.075995,-8.756226 7.448564,-5.408912 7.454326,-3.519031 c -0.01396,1.700996 -0.537883,2.895144 0.0087,5.153295 0.646587,0.2535 1.374537,1.064398 2.11065,1.931273 0.674525,1.174494 0.793466,2.239618 0.577833,3.238896 5.641498,3.016639 8.606924,0.646177 11.150704,-2.573089 -0.412372,-0.795717 -0.794522,-1.683022 -1.375762,-1.966922 0.366975,-2.055944 0.08661,-3.460596 -0.0487,-5.011183 l -0.838268,-0.9997 0.430029,-1.404489 0.573021,-9.289405 c 0.249729,-2.745641 -0.384486,-4.750081 -1.189479,-6.61132 -4.400462,-3.5639435 -8.937531,-4.9156341 -13.928199,1.078157 -0.740171,2.913681 -0.169837,5.648549 0.393072,8.384424 l 1.085183,5.275284"
       id="path895"
       sodipodi:nodetypes="ccccccccccccccccccccccccccccc"
       inkscape:export-xdpi="320"
       inkscape:export-ydpi="320" />
    <path
       style="fill:none;stroke:#000000;stroke-width:0.264583px;stroke-linecap:butt;stroke-linejoin:miter;stroke-opacity:1"
       d="m 50.421163,67.629114 c 1.303481,-0.02612 1.849344,-0.446145 0.514089,-1.844211 L 45.54206,63.486247"
       id="path897"
       sodipodi:nodetypes="ccc"
       inkscape:export-xdpi="320"
       inkscape:export-ydpi="320" />
    <path
       style="fill:none;stroke:#000000;stroke-width:0.264583px;stroke-linecap:butt;stroke-linejoin:miter;stroke-opacity:1"
       d="m 50.935252,65.784903 c 3.505258,1.308716 2.72017,-0.537542 1.505848,-1.988981 l -2.838407,-1.172517 -2.127835,-0.560477"
       id="path899"
       sodipodi:nodetypes="cccc"
       inkscape:export-xdpi="320"
       inkscape:export-ydpi="320" />
    <path
       style="fill:none;stroke:#000000;stroke-width:0.264583px;stroke-linecap:butt;stroke-linejoin:miter;stroke-opacity:1"
       d="m 52.4411,63.795922 c 3.509011,0.554032 -1.755816,-3.513624 -3.082719,-3.817617 -1.140981,-0.06932 -2.173279,-0.551239 -3.542789,0.247048 -0.142135,0.701426 -0.626498,1.363651 -1.836714,1.942736 -1.399354,-0.642512 -2.725193,-1.522821 -4.725398,-0.221827 -0.167335,0.832406 -1.068999,1.593632 -1.835427,2.367963"
       id="path901"
       sodipodi:nodetypes="cccccc"
       inkscape:export-xdpi="320"
       inkscape:export-ydpi="320" />
    <path
       style="fill:none;stroke:#000000;stroke-width:0.264583px;stroke-linecap:butt;stroke-linejoin:miter;stroke-opacity:1"
       d="m 63.758698,26.756416 1.051205,2.794775"
       id="path903"
       inkscape:export-xdpi="320"
       inkscape:export-ydpi="320" />
    <path
       style="fill:none;stroke:#000000;stroke-width:0.264583px;stroke-linecap:butt;stroke-linejoin:miter;stroke-opacity:1"
       d="m 76.825108,27.919273 c 4.13624,0.363047 6.324053,1.769288 8.346725,1.097323 2.137424,-0.236664 4.021248,-1.001719 8.606678,3.862286 1.250911,1.19474 2.502363,2.567315 3.7597,5.868485 1.884532,-0.01185 3.216679,1.313506 4.485299,2.792663 0.39979,3.731184 -0.87731,5.265863 -3.257725,5.355352 l -2.671202,0.492573 -2.756501,-0.642365 -2.001005,5.466114 1.118322,7.711731 c 5.748071,9.845421 11.298731,13.975696 11.822531,21.526563 l 1.04751,2.642648 c -7.821238,-1.239956 -11.207643,1.972939 -14.773116,5.00603 -1.8396,1.865022 -7.390976,9.999344 -22.754506,6.117065 -2.566283,-2.925243 -4.60949,-6.400688 -5.231888,-11.370622 -0.729527,-4.903327 -0.523411,-9.675895 -2.360064,-14.73394 L 55.72633,56.557075 54.824456,55.18966 51.144692,60.870552"
       id="path905"
       sodipodi:nodetypes="ccccccccccccccccccc"
       inkscape:export-xdpi="320"
       inkscape:export-ydpi="320" />
    <path
       style="fill:none;stroke:#000000;stroke-width:0.264583px;stroke-linecap:butt;stroke-linejoin:miter;stroke-opacity:1"
       d="m 102.02351,41.54003 c 4.46438,1.196075 7.36942,4.010068 10.4684,6.622856 3.7778,3.337685 7.5995,6.345901 11.50763,8.705631 2.62272,0.09399 4.90396,0.796474 6.95119,1.91593 1.2841,1.078669 2.75283,2.008696 3.83694,3.248352 l 2.70244,3.06283 c 0.43655,1.796923 -0.0401,1.810399 -0.98945,0.900713 l -1.75462,-2.120772 c -2.33949,-1.793803 -4.03434,-1.67006 -6.8106,-2.294338 0.7425,0.648171 1.23604,1.39297 2.5097,1.834987 4.0977,1.777566 1.88374,2.129788 -1.74581,1.705735 -2.20659,-1.414609 -3.04173,-2.604645 -4.92002,-3.008321 -1.25152,-1.187292 -2.0963,-2.534193 -4.07376,-3.436623 -3.80018,-2.000609 -7.56111,-4.07235 -11.96871,-4.971696 -1.58398,-0.715204 -0.83944,0.286974 -10.591254,-6.452376"
       id="path907"
       sodipodi:nodetypes="ccccccccccccccc"
       inkscape:export-xdpi="320"
       inkscape:export-ydpi="320" />
    <path
       style="fill:none;stroke:#000000;stroke-width:0.264583px;stroke-linecap:butt;stroke-linejoin:miter;stroke-opacity:1"
       d="m 67.797818,95.215741 5.750155,10.896569 7.073355,10.98704 c 1.216525,1.35414 1.098632,2.13295 4.1395,4.27367 9.545686,-5.26389 9.191316,-4.81852 13.158824,-6.87226 -0.0039,-0.61065 -2.717069,-3.55826 -3.716038,-5.56938 -1.146958,-2.01985 -2.298404,-4.03217 -3.186266,-6.48686 -0.751973,-1.38714 -0.236701,-2.43282 -0.0777,-3.574509 1.12004,1.525779 2.198961,3.232259 3.058216,5.904039 0.147664,-2.11338 0.285579,-4.22942 2.956132,-5.655116 4.372788,-1.465207 8.587528,-1.965247 12.362078,0.262968 -1.92466,-7.294272 -3.73017,-7.006962 -3.76867,-8.808444 0.49793,-1.544475 0.3517,-3.78253 -0.22195,-6.480813"
       id="path909"
       sodipodi:nodetypes="ccccccccccccc"
       inkscape:export-xdpi="320"
       inkscape:export-ydpi="320" />
    <path
       style="fill:none;stroke:#000000;stroke-width:0.264583px;stroke-linecap:butt;stroke-linejoin:miter;stroke-opacity:1"
       d="m 93.99786,104.77405 3.760943,7.97352 c 0.853132,1.9697 1.786815,3.88708 4.549817,4.61635 0.0333,-0.0101 1.63432,1.21857 6.33468,1.16185 2.48159,-1.02363 3.29041,-5.22136 2.66783,-8.27641 -0.48227,-1.26571 -0.97928,-2.85599 -1.90053,-3.4905 l -1.5601,-8.05089"
       id="path911"
       sodipodi:nodetypes="ccccccc"
       inkscape:export-xdpi="320"
       inkscape:export-ydpi="320" />
    <path
       style="fill:none;stroke:#000000;stroke-width:0.264583px;stroke-linecap:butt;stroke-linejoin:miter;stroke-opacity:1"
       d="m 109.31607,99.381902 c 0.30146,0.715028 0.41854,1.348068 -1.08168,1.262028"
       id="path913"
       sodipodi:nodetypes="cc"
       inkscape:export-xdpi="320"
       inkscape:export-ydpi="320" />
    <path
       style="fill:none;stroke:#000000;stroke-width:0.264583px;stroke-linecap:butt;stroke-linejoin:miter;stroke-opacity:1"
       d="m 109.21869,105.80269 c 3.07631,-0.89028 4.3911,3.00126 4.95098,4.47339 0.73046,1.08203 0.99251,2.76588 0.29855,4.93642 -0.25588,0.97819 -1.50044,3.69876 -2.08143,3.70053 -0.87119,0.4316 -5.93055,-0.21356 -7.2959,-0.57841"
       id="path915"
       sodipodi:nodetypes="ccccc"
       inkscape:export-xdpi="320"
       inkscape:export-ydpi="320" />
    <path
       style="fill:none;stroke:#000000;stroke-width:0.264583px;stroke-linecap:butt;stroke-linejoin:miter;stroke-opacity:1"
       d="m 114.16967,110.27608 c 2.26181,2.40442 4.42169,5.40575 6.33482,9.85199 2.94603,3.74594 4.63582,12.07851 0.4432,13.86332 -0.87955,0.64662 -2.05867,0.33831 -3.74665,-1.59219 -3.23499,-4.41438 -3.30706,-5.68506 -3.89822,-7.47169 l -4.3629,-5.96561"
       id="path917"
       sodipodi:nodetypes="cccccc"
       inkscape:export-xdpi="320"
       inkscape:export-ydpi="320" />
    <path
       style="fill:none;stroke:#000000;stroke-width:0.264583px;stroke-linecap:butt;stroke-linejoin:miter;stroke-opacity:1"
       d="m 96.869162,115.12203 c 0.995072,1.44806 2.02187,2.8193 2.588663,5.30412 0.428019,0.89737 0.415453,1.13458 2.985085,3.8329 0.0107,1.5502 0.37048,2.70962 -0.352,5.07922 0,0 -0.37543,3.10863 -5.169764,2.82212 -0.898403,-1.25636 -1.922225,-2.2811 -3.348695,-2.56226 -1.117431,-1.09615 -2.477735,-0.58092 -3.285464,-3.73178 -3.460643,-1.42809 -4.153713,-2.97533 -5.526159,-4.49333"
       id="path919"
       sodipodi:nodetypes="cccccccc"
       inkscape:export-xdpi="320"
       inkscape:export-ydpi="320" />
    <path
       style="fill:none;stroke:#000000;stroke-width:0.264583px;stroke-linecap:butt;stroke-linejoin:miter;stroke-opacity:1"
       d="m 102.44291,124.25905 c 5.5309,2.42565 10.63182,4.96389 11.08492,8.7193"
       id="path921"
       sodipodi:nodetypes="cc"
       inkscape:export-xdpi="320"
       inkscape:export-ydpi="320" />
    <path
       style="fill:none;stroke:#000000;stroke-width:0.264583px;stroke-linecap:butt;stroke-linejoin:miter;stroke-opacity:1"
       d="m 113.24297,131.74097 c 3.27318,3.04053 6.46844,6.29455 10.15952,8.19002 3.41412,0.13938 4.2073,1.5637 5.39471,2.79476 0.53286,1.40831 0.64141,2.4224 -1.69735,1.16273 -1.91747,0.072 -3.82795,0.0517 -5.92205,2.45131 -0.35216,-0.82378 -1.24072,-1.42213 -2.34463,-1.92999 -4.96328,-0.42703 -10.91373,-3.81789 -13.19778,-5.18056 -1.27054,-0.2424 -2.61729,-0.6166 -3.40646,-1.52514 -0.65512,-1.5658 -3.534752,-3.39633 -5.307784,-5.54371"
       id="path923"
       sodipodi:nodetypes="ccccccccc"
       inkscape:export-xdpi="320"
       inkscape:export-ydpi="320" />
    <path
       style="fill:none;stroke:#000000;stroke-width:0.264583px;stroke-linecap:butt;stroke-linejoin:miter;stroke-opacity:1"
       d="m 121.1778,146.33979 c 0.51868,1.24563 1.02026,2.47426 1.78386,3.96332 -0.0617,1.17544 0.11501,2.14529 -0.34318,3.66271 0.21253,0.73621 2.88774,0.57316 6.02476,0.24148 0.87258,-0.0272 1.6914,0.42438 2.73685,-1.14228 -0.28519,-1.90808 -0.14068,-3.88912 -0.0651,-5.85846 0.28092,-3.16409 -1.15309,-3.77076 -2.51777,-4.48081"
       id="path925"
       sodipodi:nodetypes="ccccccc"
       inkscape:export-xdpi="320"
       inkscape:export-ydpi="320" />
    <path
       style="fill:none;stroke:#000000;stroke-width:0.264583px;stroke-linecap:butt;stroke-linejoin:miter;stroke-opacity:1"
       d="m 97.919652,114.50076 c 0.264469,0.75878 0.275652,1.33781 -0.340002,1.47198"
       id="path927"
       sodipodi:nodetypes="cc"
       inkscape:export-xdpi="320"
       inkscape:export-ydpi="320" />
    <path
       style="fill:none;stroke:#000000;stroke-width:0.264583px;stroke-linecap:butt;stroke-linejoin:miter;stroke-opacity:1"
       d="m 77.486101,16.752815 -2.968453,-3.200813 -5.484443,4.228412 -5.482702,-4.176212 -1.646288,2.812765"
       id="path929"
       sodipodi:nodetypes="ccccc"
       inkscape:export-xdpi="320"
       inkscape:export-ydpi="320" />
    <path
       style="fill:none;stroke:#354cab;stroke-width:0.565;stroke-linecap:butt;stroke-linejoin:miter;stroke-miterlimit:4;stroke-dasharray:none;stroke-opacity:1"
       d="m 62.637449,34.226208 c -1.991462,1.182736 -4.403036,3.222464 -6.165435,3.476945 -3.471443,-0.35584 -4.462504,2.082188 -6.17809,3.70413 -3.566424,5.849824 -5.054723,8.26201 -6.957933,11.360566"
       id="path931"
       sodipodi:nodetypes="cccc"
       inkscape:export-xdpi="320"
       inkscape:export-ydpi="320" />
    <path
       style="fill:none;stroke:#d71818;stroke-width:0.565;stroke-linecap:butt;stroke-linejoin:miter;stroke-miterlimit:4;stroke-dasharray:none;stroke-opacity:1"
       d="m 62.360627,32.81585 c -1.367729,0.744459 -2.520488,1.730402 -4.337397,2.283969 -1.568766,0.233426 -2.679562,1.149266 -3.963261,1.807485 -0.99209,0.657167 -1.858549,1.103498 -3.017591,2.040838 0.03847,-0.157726 -1.736699,2.373826 -4.610299,6.534187"
       id="path933"
       sodipodi:nodetypes="ccccc"
       inkscape:export-xdpi="320"
       inkscape:export-ydpi="320" />
    <path
       style="fill:none;stroke:#354cab;stroke-width:0.565;stroke-linecap:butt;stroke-linejoin:miter;stroke-miterlimit:4;stroke-dasharray:none;stroke-opacity:1"
       d="m 62.448967,31.576184 -7.213514,3.46127"
       id="path935"
       sodipodi:nodetypes="cc"
       inkscape:export-xdpi="320"
       inkscape:export-ydpi="320" />
    <path
       style="fill:none;stroke:#d71818;stroke-width:1.11036;stroke-linecap:butt;stroke-linejoin:miter;stroke-miterlimit:4;stroke-dasharray:none;stroke-opacity:1"
       d="m 62.402723,30.765475 c 0.341389,0.802225 -0.06472,1.674712 -0.09708,2.512073 -0.08015,1.107811 0.166402,2.419694 0.558779,3.423473"
       id="path937"
       sodipodi:nodetypes="ccc"
       inkscape:export-xdpi="320"
       inkscape:export-ydpi="320" />
    <path
       style="fill:none;stroke:#354cab;stroke-width:0.565;stroke-linecap:butt;stroke-linejoin:miter;stroke-miterlimit:4;stroke-dasharray:none;stroke-opacity:1"
       d="m 79.47365,30.951398 6.365039,0.214441 5.212092,0.101033"
       id="path951"
       sodipodi:nodetypes="ccc"
       inkscape:export-xdpi="320"
       inkscape:export-ydpi="320" />
    <path
       style="fill:none;stroke:#d71818;stroke-width:0.565;stroke-linecap:butt;stroke-linejoin:miter;stroke-miterlimit:4;stroke-dasharray:none;stroke-opacity:1"
       d="m 79.40413,30.066274 c 1.496358,0.04928 2.629769,0.269284 4.727465,0.0357 2.3352,-0.378236 4.009832,-0.03141 5.89691,0.08224"
       id="path953"
       sodipodi:nodetypes="ccc"
       inkscape:export-xdpi="320"
       inkscape:export-ydpi="320" />
    <path
       style="fill:#000000;fill-opacity:0;stroke:#354cab;stroke-width:0.565;stroke-linecap:butt;stroke-linejoin:miter;stroke-miterlimit:4;stroke-dasharray:none;stroke-opacity:1"
       d="m 78.515696,29.050012 c 1.388519,0.01746 2.850458,0.216869 4.327836,0.454527"
       id="path955"
       sodipodi:nodetypes="cc"
       inkscape:export-xdpi="320"
       inkscape:export-ydpi="320" />
    <path
       style="fill:#d71818;fill-opacity:1;stroke:#d71818;stroke-width:0.264583px;stroke-linecap:butt;stroke-linejoin:miter;stroke-opacity:1"
       d="m 65.625262,36.288944 c 0.0022,0.604252 0.499039,1.054632 -0.561881,1.989543 -1.059009,1.296846 -3.947085,3.320692 -6.382036,5.16443 -3.817764,2.904322 -3.50829,5.356122 -3.50829,5.356122 2.482285,-4.03435 7.404254,-5.986555 10.86504,-8.602517 0.611603,-0.424637 1.133299,-0.938637 0.995832,-2.107796 -0.294404,-0.740928 -0.673893,-1.413351 -1.408665,-1.799782 z"
       id="path957"
       sodipodi:nodetypes="ccccccc"
       inkscape:export-xdpi="320"
       inkscape:export-ydpi="320" />
    <path
       style="fill:#d71818;fill-opacity:1;stroke:#d71818;stroke-width:0.264583px;stroke-linecap:butt;stroke-linejoin:miter;stroke-opacity:1"
       d="m 78.012849,33.962655 c 0.44553,0.480243 0.900915,0.900214 1.389869,1.114955 3.428798,0.494288 5.94278,0.921636 9.459042,1.424425 2.322177,0.172203 2.216637,1.69351 3.315242,2.545663 -0.990209,-0.545377 -1.699873,-1.185216 -3.045118,-1.611038 -1.8906,-0.524766 -4.13492,-0.670271 -6.247557,-0.595902 -1.924061,0.06772 -3.758501,0.428992 -4.733107,-1.325021 z"
       id="path959"
       sodipodi:nodetypes="cccccscc"
       inkscape:export-xdpi="320"
       inkscape:export-ydpi="320" />
    <path
       style="fill:#d71818;fill-opacity:1;stroke:#d71818;stroke-width:0.264583px;stroke-linecap:butt;stroke-linejoin:miter;stroke-opacity:1"
       d="m 74.464685,42.67648 c 0,0 -3.835465,-0.278195 -4.84429,-0.0019 1.533302,0.762913 3.163461,0.782103 4.780223,0.90416 2.887807,-0.782045 3.092892,-2.003829 3.565693,-2.967562 -0.987032,0.647419 -1.682823,1.401256 -3.501626,2.065313 z"
       id="path961"
       sodipodi:nodetypes="ccccc"
       inkscape:export-xdpi="320"
       inkscape:export-ydpi="320" />
    <path
       style="fill:none;fill-opacity:1;stroke:none;stroke-width:0.26458300000000001px;stroke-linecap:butt;stroke-linejoin:miter;stroke-opacity:1"
       d="m 58.89373,57.161628 c 2.451311,3.528286 2.725662,7.426228 3.81391,11.185965 4.92473,-2.491919 10.35344,-2.99369 15.530652,-4.48863 L 90.652228,59.89958 c -1.902808,-4.027855 -1.227106,-5.706516 -1.774069,-8.499098 -1.008482,1.510962 -2.680234,2.972936 -5.325629,4.362999 -2.544142,1.325291 -6.269552,2.148579 -10.575066,2.725352 -4.044927,1.034796 -5.52603,0.83912 -6.990654,0.635543 -4.250935,-0.333903 -4.85128,-1.287687 -7.09308,-1.962748 z"
       id="path963"
       sodipodi:nodetypes="ccccccccc"
       inkscape:export-xdpi="320"
       inkscape:export-ydpi="320" />
    <path
       style="fill:none;stroke:#354cab;stroke-width:1.865;stroke-linecap:butt;stroke-linejoin:miter;stroke-miterlimit:4;stroke-dasharray:none;stroke-opacity:1"
       d="m 60.409729,50.755001 c 0.792281,-2.017162 1.570699,-2.844648 2.313288,-0.597643 l 1.225909,6.917977"
       id="path985"
       sodipodi:nodetypes="ccc"
       inkscape:export-xdpi="320"
       inkscape:export-ydpi="320" />
    <path
       style="fill:none;stroke:#354cab;stroke-width:1.865;stroke-linecap:butt;stroke-linejoin:miter;stroke-miterlimit:4;stroke-dasharray:none;stroke-opacity:1"
       d="m 65.296171,49.558914 c 0.935817,-2.168596 2.19212,-2.57875 3.896265,-0.531609 l 0.794929,5.029413 c -1.15946,2.934266 -2.54542,2.004518 -3.96736,0.460951 z"
       id="path987"
       sodipodi:nodetypes="ccccc"
       inkscape:export-xdpi="320"
       inkscape:export-ydpi="320" />
    <path
       style="fill:none;stroke:#354cab;stroke-width:1.265;stroke-linecap:butt;stroke-linejoin:miter;stroke-miterlimit:4;stroke-dasharray:none;stroke-opacity:1"
       d="m 95.777845,90.641893 c 0.470141,-1.13812 0.740142,-3.164053 1.933807,-1.092585 l 1.881097,4.860724"
       id="path1049"
       sodipodi:nodetypes="ccc"
       inkscape:export-xdpi="320"
       inkscape:export-ydpi="320" />
    <path
       style="fill:none;stroke:#354cab;stroke-width:1.265;stroke-linecap:butt;stroke-linejoin:miter;stroke-miterlimit:4;stroke-dasharray:none;stroke-opacity:1"
       d="m 100.49827,89.233705 c -0.39545,-0.535815 0.73854,-3.022397 3.2815,-0.718723 l 0.88494,3.564466 c -0.24047,1.31713 -0.55811,2.406684 -2.73902,0.433579 z"
       id="path1051"
       sodipodi:nodetypes="ccccc"
       inkscape:export-xdpi="320"
       inkscape:export-ydpi="320" />
    <path
       style="fill:none;stroke:#000000;stroke-width:0.264583px;stroke-linecap:butt;stroke-linejoin:miter;stroke-opacity:1"
       d="m 64.809903,29.551191 c 0.594519,2.516563 1.680058,3.324229 2.444579,4.177008 1.875113,1.61979 4.462011,2.705081 6.481054,-0.08659 1.185338,-1.847203 2.003065,-3.739245 2.65954,-4.317858"
       id="path1053"
       sodipodi:nodetypes="cccc"
       inkscape:export-xdpi="320"
       inkscape:export-ydpi="320" />
    <path
       style="fill:none;stroke:#d71818;stroke-width:0.765;stroke-linecap:butt;stroke-linejoin:miter;stroke-miterlimit:4;stroke-dasharray:none;stroke-opacity:1"
       d="m 56.361405,55.042862 c 2.444287,3.608704 2.30695,4.220246 3.460344,6.303715 l 2.199684,9.214131 1.427416,7.946953 6.689174,13.376545"
       id="path1055"
       sodipodi:nodetypes="ccccc"
       inkscape:export-xdpi="320"
       inkscape:export-ydpi="320" />
    <path
       style="fill:none;stroke:#d71818;stroke-width:0.765;stroke-linecap:butt;stroke-linejoin:miter;stroke-miterlimit:4;stroke-dasharray:none;stroke-opacity:1"
       d="m 91.649766,46.917086 c -0.704113,0.151252 -1.262994,1.157822 -1.694963,2.911746 -0.176031,3.579848 0.660156,6.511222 1.432098,9.483743 l 2.084069,4.169744 c 1.00483,3.559088 1.589785,7.253419 3.104776,10.21364 0.985322,1.192249 0.574879,2.932199 -0.01893,4.74411 l -1.228776,2.409189"
       id="path1349"
       sodipodi:nodetypes="ccccccc"
       inkscape:export-xdpi="320"
       inkscape:export-ydpi="320" />
    <path
       style="fill:#ffffff;fill-opacity:1;stroke:#f2f2f2;stroke-width:0;stroke-linecap:round;stroke-linejoin:round;stroke-miterlimit:4;stroke-dasharray:none;stroke-opacity:1"
       d="m 73.469862,95.997698 c -1.405821,-0.13116 -2.86574,-0.353749 -4.254224,-0.648638 -1.453398,-0.308674 -1.295685,-0.195638 -2.508365,-1.797821 -2.174202,-2.872512 -3.407621,-5.88667 -3.947038,-9.645509 -0.110038,-0.766746 -0.332238,-2.76266 -0.493785,-4.435355 -0.445078,-4.608359 -0.623472,-5.84392 -1.1482,-7.952376 -0.320271,-1.286687 -0.577703,-2.040401 -3.283871,-9.6108 -1.744283,-4.87966 -2.003037,-5.536308 -2.445339,-6.205556 -0.272052,-0.41164 -0.527176,-0.74834 -0.566956,-0.74821 -0.03976,9.2e-5 -0.382014,0.479538 -0.760534,1.065379 -0.378521,0.585841 -1.208729,1.866276 -1.844909,2.84542 l -1.156683,1.780248 -0.401676,-0.246181 c -0.707185,-0.433424 -1.137536,-0.577796 -2.08465,-0.699365 -1.682968,-0.216013 -2.848001,0.07654 -3.036624,0.762528 -0.10694,0.388931 -0.728984,1.045554 -1.241398,1.31041 l -0.362423,0.187374 -0.526554,-0.2638 c -1.303723,-0.653132 -2.56626,-0.732917 -3.657239,-0.231118 -0.527244,0.242519 -0.611468,0.321081 -0.809346,0.755111 -0.121477,0.266444 -0.513774,0.79735 -0.871765,1.17979 l -0.650887,0.695356 -0.825907,-0.43752 -0.825906,-0.437519 0.73566,-0.964279 c 0.404605,-0.53035 1.444936,-1.897448 2.311838,-3.037991 l 1.576179,-2.073713 2.285112,-4.867229 c 1.256809,-2.676969 2.549411,-5.330014 2.872451,-5.895638 l 0.587328,-1.028405 0.272923,0.193075 c 0.150105,0.106203 0.284092,0.177787 0.297749,0.159077 0.01367,-0.01869 0.952779,-1.376293 2.086929,-3.016871 1.134149,-1.640578 2.274466,-3.197775 2.534035,-3.46043 0.481775,-0.487513 2.027836,-1.517542 3.813491,-2.540654 1.307457,-0.74912 1.787264,-0.964568 2.68945,-1.207642 1.008009,-0.27156 1.832104,-0.635758 2.884962,-1.274859 0.483486,-0.293487 0.887513,-0.522738 0.897843,-0.509464 0.01038,0.01322 0.04213,0.173164 0.07071,0.355279 l 0.052,0.331109 -1.543169,1.031655 c -0.848739,0.567401 -1.931121,1.226546 -2.405296,1.464757 -0.847095,0.425567 -0.882996,0.434314 -2.056898,0.501424 -2.055546,0.117513 -2.604101,0.434498 -4.684657,2.707045 -1.004265,1.096939 -1.148739,1.315006 -4.491429,6.779117 -1.899583,3.105147 -3.453638,5.694042 -3.45346,5.753105 4.72e-4,0.151952 0.45863,0.344579 0.561505,0.236071 0.04559,-0.04808 1.595495,-2.55838 3.444201,-5.578395 3.057248,-4.99425 3.448987,-5.590466 4.330723,-6.591244 1.260513,-1.430706 1.803516,-1.913206 2.568286,-2.282087 0.562668,-0.27142 0.747004,-0.309169 1.807547,-0.369978 1.63704,-0.0939 2.129222,-0.304702 4.680414,-2.004532 0.706519,-0.470751 1.294906,-0.842843 1.307527,-0.826877 0.01232,0.01607 0.09349,0.311287 0.179277,0.656432 0.08597,0.345076 0.198701,0.737895 0.250559,0.872901 l 0.09422,0.245484 0.493117,-0.196115 c 0.271207,-0.107855 0.521122,-0.213499 0.555345,-0.234803 0.03422,-0.0213 -0.03927,-0.385196 -0.163298,-0.808684 -0.321777,-1.098269 -0.380954,-2.102253 -0.190792,-3.234748 0.09818,-0.584675 0.132678,-1.113404 0.09291,-1.424028 l -0.06322,-0.49407 0.740011,-0.341813 c 0.407006,-0.18802 0.757633,-0.324614 0.779205,-0.303459 0.02151,0.02107 -0.01492,0.650533 -0.08107,1.398753 -0.119785,1.355286 -0.08075,2.536427 0.104958,3.176004 0.06853,0.234264 0.209014,0.39874 0.485152,0.565478 0.50472,0.304807 1.601083,1.485108 1.863081,2.005718 0.353092,0.701632 0.52516,1.544304 0.458264,2.244739 -0.07117,0.745541 -0.09991,0.716474 1.291748,1.306047 1.250987,0.52997 2.372723,0.777051 3.527857,0.777052 1.591867,2.1e-5 2.898123,-0.475418 4.224741,-1.537656 0.650301,-0.520699 1.715925,-1.609357 2.207041,-2.254747 l 0.228459,-0.30022 -0.243123,-0.476169 c -0.133719,-0.2619 -0.243194,-0.497915 -0.243272,-0.524476 -8.1e-5,-0.02657 0.201566,0.07875 0.448106,0.234051 0.752243,0.473841 0.969061,0.499064 4.326114,0.503174 4.583642,0.0056 5.812338,0.252568 8.033013,1.614598 0.803702,0.492944 0.955136,0.555982 1.026603,0.427361 0.06007,-0.108173 0.01777,-0.221883 -0.149405,-0.401475 -0.128282,-0.137835 -0.405601,-0.505203 -0.616267,-0.816397 -0.794959,-1.174289 -1.171312,-1.361361 -3.386222,-1.68313 -2.469175,-0.358717 -8.38593,-1.255041 -8.612784,-1.304749 -0.111269,-0.02441 -0.532685,-0.350992 -0.936497,-0.725803 l -0.734204,-0.681486 0.06699,0.848058 c 0.03685,0.466437 0.09149,0.975555 0.121438,1.131383 l 0.05444,0.283316 -0.279965,-0.262457 c -0.272694,-0.255646 -0.277696,-0.27649 -0.192576,-0.802621 0.08502,-0.525514 0.02299,-3.119863 -0.09571,-4.003028 -0.04398,-0.327263 -0.162582,-0.564843 -0.464657,-0.930809 l -0.405597,-0.491383 0.187787,-0.561719 c 0.185063,-0.553564 0.19257,-0.561319 0.517597,-0.534013 0.286922,0.0241 0.345723,0.07376 0.452177,0.381879 0.06728,0.194802 0.244752,0.507389 0.394333,0.694662 0.827956,1.036554 0.822204,1.024445 0.871605,1.834917 0.02713,0.44534 0.09083,0.778607 0.152282,0.796848 0.0581,0.01725 0.286402,0.0515 0.507358,0.07615 l 0.401739,0.04481 -0.0011,-0.345361 -0.0011,-0.345352 0.938719,0.03104 2.014541,0.0666 c 1.624294,0.05371 4.112078,0.123093 5.528408,0.154183 l 2.575147,0.05653 -9.83e-4,-0.322487 -9.81e-4,-0.322478 -2.05542,-0.05456 c -7.054109,-0.187256 -8.997023,-0.264345 -9.033336,-0.358439 -0.03709,-0.09622 0.763162,-0.121324 6.31492,-0.198182 0.831518,-0.0115 2.011597,0.01522 2.622404,0.0594 l 1.110552,0.08032 -7.65e-4,-0.252401 c -7.04e-4,-0.232033 0.01643,-0.243393 0.212187,-0.140736 0.504376,0.264455 1.444237,1.063629 2.771152,2.356351 2.131448,2.076507 2.951006,3.209297 3.852572,5.325017 l 0.487445,1.143893 0.570133,0.04995 c 0.947104,0.08297 1.824853,0.581583 2.916473,1.656753 l 0.92233,0.908415 0.0707,0.641547 c 0.0953,0.865208 -0.0729,2.115093 -0.37643,2.797047 -0.45112,1.013505 -1.20405,1.52889 -2.50391,1.713958 -0.384115,0.05464 -1.190383,0.19152 -1.791741,0.304079 l -1.093379,0.204662 -1.454548,-0.335799 c -0.799997,-0.184683 -1.459588,-0.326968 -1.465752,-0.316185 -0.154248,0.269863 -2.011148,5.579865 -2.010566,5.749447 4.62e-4,0.133673 0.23968,1.873303 0.531603,3.865829 0.291927,1.992544 0.528931,3.668394 0.526681,3.724116 -0.0022,0.05576 -0.107875,-0.09649 -0.23472,-0.338249 -0.265137,-0.505332 -0.996677,-3.296446 -1.282899,-4.894747 -0.230345,-1.286269 -0.392435,-2.880771 -0.395629,-3.891821 -0.0037,-1.184965 0.579248,-2.806753 1.17985,-3.282161 0.216208,-0.171093 0.236943,-0.237705 0.178998,-0.574425 -0.08572,-0.498091 -0.300935,-0.500492 -0.830593,-0.0093 -0.477548,0.442884 -0.924356,1.309798 -1.203163,2.334403 -0.183005,0.672533 -0.197762,0.895514 -0.143419,2.166914 0.09235,2.160549 0.262949,3.22463 0.999416,6.233587 0.43183,1.764305 0.456429,1.828467 1.483483,3.869369 l 1.044378,2.075323 0.887944,3.44671 c 1.070015,4.153434 1.564522,5.587574 2.55519,7.410397 0.17027,0.313297 0.203527,0.521717 0.1959,1.227829 -0.01207,1.116914 -0.314929,2.135589 -1.110703,3.735814 -0.335789,0.675233 -0.610459,1.248703 -0.61038,1.274376 1.1e-4,0.02565 0.165644,0.130472 0.367922,0.23289 l 0.367782,0.186217 0.620786,-1.215226 c 1.376004,-2.69361 1.638245,-4.892465 0.743834,-6.236945 -0.649079,-0.975697 -1.325473,-3.02254 -2.388627,-7.228236 -0.659781,-2.610005 -0.766558,-2.939681 -1.340695,-4.13935 -0.343094,-0.716913 -0.605204,-1.322197 -0.582464,-1.345088 0.02274,-0.02287 0.312647,0.393573 0.644235,0.925448 0.973203,1.561043 2.372481,3.615823 4.25088,6.242223 0.966436,1.351283 2.133116,3.014726 2.592626,3.696539 2.29541,3.40593 3.35667,5.885103 3.74544,8.749588 0.10863,0.800439 0.24536,1.310488 0.57144,2.131698 0.23576,0.593726 0.41379,1.094456 0.39562,1.112736 -0.0182,0.01828 -0.70115,-0.0171 -1.51774,-0.07863 -3.27068,-0.246417 -6.104997,0.37311 -8.630912,1.886546 -1.699944,1.018544 -3.757083,2.723698 -5.556586,4.605836 -0.689168,0.720815 -1.579531,1.575602 -1.978585,1.899532 -2.475855,2.009735 -5.30423,3.23971 -8.606227,3.74258 -1.222396,0.186164 -3.989942,0.269989 -5.196726,0.157409 z m -2.942363,-4.273454 c 5.2e-5,-0.0167 -1.501034,-3.039264 -3.335524,-6.716905 L 63.856534,78.32072 63.15195,74.397612 C 62.640832,71.551685 62.143053,69.198579 61.339059,65.827523 L 60.23074,61.180536 59.189179,59.077722 c -0.852304,-1.720695 -2.118207,-3.90677 -2.457768,-4.244252 -0.03995,-0.03964 -0.230534,0.03586 -0.423548,0.167922 l -0.350953,0.240041 0.363738,0.538271 c 0.751148,1.111547 1.38364,2.238538 2.220492,3.956511 l 0.862515,1.770653 1.089033,4.532414 c 0.803941,3.345891 1.279707,5.589803 1.817408,8.571588 l 0.728366,4.039179 3.365181,6.747274 3.36519,6.747272 0.37938,-0.195015 c 0.208672,-0.107259 0.379349,-0.208638 0.3793,-0.225292 z M 63.661714,68.121299 c 2.163858,-1.013027 4.25828,-1.644723 9.05333,-2.730558 1.895677,-0.429283 3.922283,-0.908309 4.50358,-1.064502 1.182103,-0.317646 13.506284,-4.231116 13.590129,-4.315571 0.02943,-0.02966 -0.141059,-0.534029 -0.378886,-1.120905 -0.722222,-1.782195 -0.93373,-2.769267 -1.119092,-5.222718 -0.115403,-1.527428 -0.271104,-2.597768 -0.377851,-2.597446 -0.03663,6.2e-5 -0.265767,0.273238 -0.509233,0.606953 -1.232017,1.688697 -3.850217,3.540412 -6.517207,4.609287 -1.632042,0.654088 -4.288951,1.296563 -7.512776,1.816725 -0.961016,0.155059 -2.363459,0.416295 -3.116555,0.580534 -1.91761,0.418197 -3.540811,0.480351 -5.720701,0.219037 -2.021924,-0.242376 -3.10537,-0.512463 -4.644659,-1.157858 -1.359641,-0.570069 -2.162039,-0.849459 -2.303185,-0.801936 -0.05214,0.01723 0.104684,0.3271 0.348484,0.687869 0.5626,0.83314 1.252778,2.27379 1.690328,3.528352 0.322649,0.925011 0.535819,1.739532 1.491358,5.70248 0.252136,1.045618 0.447903,1.675906 0.520263,1.675693 0.0638,-2.26e-4 0.515052,-0.187113 1.00267,-0.415445 z m 0.544895,-11.034233 c 0.663989,-0.107071 0.72577,-0.135359 0.685625,-0.314093 -0.02414,-0.108105 -0.305248,-1.683962 -0.624391,-3.502002 -0.319156,-1.818046 -0.64645,-3.504724 -0.727336,-3.748179 -0.551808,-1.660843 -1.917544,-2.168112 -2.954692,-1.097394 -0.300182,0.309889 -1.052118,1.687947 -1.051388,1.926841 2.25e-4,0.0638 0.351579,0.253419 0.780859,0.421359 0.429283,0.167948 0.82647,0.323977 0.882636,0.346749 0.05618,0.02277 0.179101,-0.130674 0.273177,-0.341022 0.09407,-0.210337 0.199095,-0.382515 0.233365,-0.38262 0.03432,-7.8e-5 0.338258,1.554463 0.675504,3.454597 l 0.613178,3.454783 0.241858,-0.05068 c 0.133012,-0.02789 0.570236,-0.103621 0.971611,-0.168317 z m 4.977896,-0.378105 c 0.519906,-0.267235 1.115565,-0.985276 1.492092,-1.798635 l 0.326094,-0.70443 -0.443134,-2.838751 -0.443134,-2.838751 -0.69126,-0.664106 c -0.884454,-0.849713 -1.425349,-1.117312 -2.246819,-1.111568 -1.08076,0.0076 -1.848302,0.588537 -2.525682,1.91163 l -0.374905,0.732304 0.40416,2.749158 c 0.398659,2.711809 0.408382,2.754464 0.715868,3.140267 0.3957,0.496497 0.984057,0.976148 1.63297,1.331278 0.641002,0.3508 1.572424,0.390417 2.15375,0.0916 z M 55.569344,48.549144 c 0.557695,-0.874804 2.465345,-2.772119 3.664976,-3.64512 0.544493,-0.396244 1.923697,-1.307431 3.064896,-2.024854 4.455182,-2.800807 4.804454,-3.102387 4.919102,-4.247428 0.04154,-0.414836 0.0063,-0.591877 -0.207005,-1.039168 -0.14137,-0.296529 -0.367346,-0.669397 -0.502134,-0.828593 -0.223849,-0.264391 -0.88471,-0.742403 -1.025787,-0.741978 -0.03218,5.66e-4 -0.02783,0.298512 0.0099,0.663127 0.08208,0.792956 0.04237,0.871439 -0.933198,1.843954 -0.854719,0.852041 -1.562537,1.425966 -4.389422,3.559093 -1.270389,0.958619 -2.635978,2.070775 -3.03464,2.471453 -0.811694,0.815817 -1.562642,1.907726 -1.869827,2.718805 -0.222283,0.586898 -0.36095,1.910572 -0.200104,1.910082 0.05273,-1.39e-4 0.279163,-0.287877 0.503237,-0.639373 z M 75.22263,43.51196 c 1.397976,-0.498163 2.119781,-1.13139 2.709594,-2.376924 0.214382,-0.452724 0.369436,-0.843356 0.344562,-0.868083 -0.02487,-0.02474 -0.636798,0.356671 -1.359838,0.847534 -0.723042,0.490853 -1.586649,1.000735 -1.919127,1.133067 -0.596251,0.237345 -0.626438,0.239596 -2.211137,0.167541 -0.883646,-0.04019 -1.861699,-0.05068 -2.173445,-0.02332 -1.001673,0.0879 -1.369715,0.148703 -1.36948,0.22626 2.78e-4,0.102423 0.966539,0.522213 1.608543,0.698888 0.49199,0.135394 1.575972,0.300356 2.410724,0.366863 0.975909,0.07775 1.351787,0.04479 1.959604,-0.171821 z"
       id="path1361"
       sodipodi:nodetypes="ssssssssssscsssscsssscccsscsscscssssssscssssssssssssssscssssscssssssssssscssssssssssscsscsssscsssssssccccsscccsssscsssscsscsssscsssscsscssssssscsssssscssssssssssscssssssscsscssscsscsscccsssssssssssssssssssssssssssssssscsssscccssscssssssssssssssssssssssssssssss"
       inkscape:export-xdpi="320"
       inkscape:export-ydpi="320" />
    <path
       style="fill:#ffffff;fill-opacity:1;stroke:#f2f2f2;stroke-width:0;stroke-linecap:round;stroke-linejoin:round;stroke-miterlimit:4;stroke-dasharray:none;stroke-opacity:1"
       d="m 83.654848,120.27797 c -1.403853,-1.16443 -2.315227,-2.41249 -6.453689,-8.83787 l -3.462347,-5.37562 -2.768738,-5.236 c -1.522805,-2.879794 -2.75732,-5.249434 -2.743363,-5.265863 0.01396,-0.01642 0.55092,0.07458 1.193229,0.202248 5.141553,1.02194 9.697842,0.817237 13.331854,-0.598975 2.585028,-1.007413 4.357856,-2.238198 6.812416,-4.729514 3.738973,-3.794963 6.476575,-5.523855 9.811952,-6.196584 1.299438,-0.262091 5.257608,-0.237346 5.702348,0.03565 0.17613,0.108114 0.47536,1.93239 0.55342,3.373903 0.0544,1.005538 0.0349,1.417304 -0.10268,2.16051 -0.2216,1.197395 -0.14518,1.478886 0.76847,2.830668 0.38595,0.571017 0.91709,1.491323 1.18032,2.045129 0.41345,0.869854 1.29254,3.294188 1.47146,4.057971 l 0.0589,0.251437 -0.54743,-0.263121 c -2.23643,-1.074929 -5.07576,-1.30584 -8.29012,-0.674197 -1.220735,0.239882 -3.077677,0.794349 -3.580669,1.069159 -0.623588,0.340692 -1.432167,1.094991 -1.796788,1.676161 -0.413769,0.6595 -0.604775,1.18861 -0.785342,2.17548 l -0.155639,0.85063 -0.212838,-0.57826 c -0.343794,-0.93403 -1.168695,-2.47052 -1.960422,-3.651582 -0.405432,-0.604801 -0.766575,-1.099548 -0.802544,-1.099438 -0.108671,3.33e-4 -0.417101,1.97 -0.40541,2.58893 0.01837,0.97114 1.243894,3.79008 3.053243,7.02273 1.067959,1.9081 1.475808,2.53509 2.77459,4.26541 0.484436,0.6454 1.001843,1.36305 1.149791,1.59477 l 0.269,0.42132 -3.79819,1.91115 c -2.089006,1.05113 -4.980767,2.56073 -6.426125,3.35468 -1.445368,0.79394 -2.676542,1.44367 -2.735941,1.44385 -0.05942,1.7e-4 -0.555613,-0.37097 -1.102707,-0.82476 z M 99.597161,94.467276 c 0.305449,-0.125354 0.567499,-0.264699 0.582329,-0.309647 0.0515,-0.156225 -1.879537,-4.990429 -2.142666,-5.363871 -0.679596,-0.964499 -1.662615,-1.059259 -2.175051,-0.209664 -0.179902,0.298269 -0.675899,1.60356 -0.675369,1.777332 2.39e-4,0.07885 0.596294,0.375677 1.024361,0.510106 0.192449,0.06043 0.197064,0.05191 0.63779,-1.177848 0.0756,-0.210958 0.216763,0.09503 1.140931,2.473207 0.449645,1.157091 0.855277,2.199361 0.901393,2.316158 0.0461,0.1168 0.09894,0.212309 0.117386,0.212254 0.01844,-7e-5 0.283447,-0.102671 0.588899,-0.228027 z m 4.499299,-0.262789 c 0.19328,-0.05435 0.47341,-0.243012 0.63402,-0.427053 0.28753,-0.329502 0.58019,-1.134427 0.59179,-1.627652 0.003,-0.143741 -0.19702,-1.089915 -0.44533,-2.102612 -0.44765,-1.82568 -0.45482,-1.84437 -0.84678,-2.208065 -0.93819,-0.870527 -2.29737,-1.182699 -3.16164,-0.726154 -0.71136,0.375768 -1.245068,1.366999 -1.096063,2.035667 0.03655,0.164057 0.409203,1.084227 0.828113,2.044821 0.80309,1.841578 0.88308,1.954865 1.80569,2.557364 0.42016,0.274384 1.02562,0.53978 1.24941,0.54767 0.052,0.002 0.25033,-0.04047 0.44079,-0.09399 z"
       id="path1363"
       inkscape:export-xdpi="320"
       inkscape:export-ydpi="320" />
    <path
       style="fill:#ffffff;fill-opacity:1;stroke:#f2f2f2;stroke-width:0;stroke-linecap:round;stroke-linejoin:round;stroke-miterlimit:4;stroke-dasharray:none;stroke-opacity:1"
       d="m 67.744382,54.781536 c -0.143646,-0.106511 -0.387134,-0.308724 -0.54107,-0.449359 l -0.279887,-0.255717 -0.316051,-2.194482 -0.31606,-2.194479 0.219549,-0.36476 c 0.419811,-0.697472 0.637068,-0.782339 1.131203,-0.441839 0.64511,0.444505 0.603608,0.326535 0.998189,2.837232 l 0.354591,2.256232 -0.18,0.31572 c -0.245432,0.430531 -0.491694,0.684176 -0.66476,0.684699 -0.07949,2.8e-4 -0.262046,-0.0867 -0.405695,-0.193218 z"
       id="path1365"
       inkscape:export-xdpi="320"
       inkscape:export-ydpi="320" />
    <path
       style="fill:#ffffff;fill-opacity:1;stroke:#f2f2f2;stroke-width:0;stroke-linecap:round;stroke-linejoin:round;stroke-miterlimit:4;stroke-dasharray:none;stroke-opacity:1"
       d="m 103.436,92.816705 c -0.12873,-0.06393 -0.39674,-0.2447 -0.59558,-0.401717 l -0.36152,-0.285484 -0.6993,-1.607628 c -0.47236,-1.085915 -0.69094,-1.641346 -0.67355,-1.711533 0.0441,-0.178018 0.23291,-0.416114 0.40519,-0.510971 0.32591,-0.179441 0.86338,-0.03675 1.41914,0.376764 l 0.26103,0.194213 0.39976,1.614085 c 0.38955,1.572913 0.39831,1.62063 0.34316,1.870648 -0.067,0.303616 -0.17458,0.577578 -0.22693,0.577738 -0.0205,9e-5 -0.14266,-0.05219 -0.27139,-0.116116 z"
       id="path1367"
       inkscape:export-xdpi="320"
       inkscape:export-ydpi="320" />
    <path
       style="fill:#ffffff;fill-opacity:1;stroke:#f2f2f2;stroke-width:0;stroke-linecap:round;stroke-linejoin:round;stroke-miterlimit:4;stroke-dasharray:none;stroke-opacity:1"
       d="m 121.08217,145.86451 c -0.27887,-0.43852 -1.00698,-1.00512 -1.80499,-1.40462 -0.38595,-0.19321 -0.39103,-0.19465 -0.88947,-0.25181 -1.56212,-0.17914 -3.5738,-0.73529 -5.61743,-1.553 -1.9304,-0.77241 -4.22322,-1.90937 -6.41987,-3.18349 -0.61566,-0.35709 -0.67905,-0.38599 -0.99138,-0.45187 -0.53345,-0.11251 -1.13099,-0.28299 -1.50712,-0.42998 -0.74401,-0.29075 -1.36557,-0.7348 -1.56178,-1.11576 -0.33597,-0.6523 -0.97919,-1.34882 -2.539201,-2.74961 -1.108801,-0.99563 -1.607762,-1.46669 -2.090905,-1.97395 l -0.386777,-0.4061 0.2826,-0.008 c 1.613388,-0.0483 2.748143,-0.40041 3.582573,-1.11166 0.45031,-0.38383 0.8536,-0.99364 1.01452,-1.53407 0.49006,-1.64571 0.60278,-2.64119 0.48947,-4.32291 -0.0206,-0.30589 -0.0329,-0.62575 -0.0272,-0.7108 l 0.0102,-0.15464 0.9702,0.43864 c 1.86276,0.8422 2.77909,1.28976 3.95448,1.93148 2.44634,1.3356 4.07878,2.63766 4.98498,3.97609 0.384,0.56714 0.70349,1.31754 0.79429,1.86551 0.0228,0.13744 0.0518,0.26218 0.0645,0.2772 0.0127,0.015 0.0777,0.0169 0.14435,0.004 0.10886,-0.0208 0.12114,-0.0338 0.12063,-0.12798 -3.1e-4,-0.0577 -0.0288,-0.22129 -0.0633,-0.36359 -0.0345,-0.14229 -0.0562,-0.25874 -0.0481,-0.25877 0.008,1e-5 0.40929,0.371 0.89161,0.82449 2.92445,2.74966 4.15701,3.8247 5.73397,5.00115 1.18638,0.88508 2.96273,1.9736 3.27718,2.0082 0.0752,0.008 0.32467,0.0309 0.55441,0.0503 0.5239,0.0442 1.15132,0.16811 1.59639,0.31518 0.90178,0.29797 1.55921,0.74213 2.3401,1.58096 0.70061,0.75259 0.73336,0.79536 0.82783,1.08127 0.25426,0.76949 0.25423,1.11324 -9e-5,1.1843 -0.21737,0.0608 -0.55249,-0.0355 -1.20106,-0.34511 l -0.44149,-0.21071 -0.67825,0.0322 c -0.37304,0.0177 -0.82103,0.0491 -0.99553,0.0697 -1.56358,0.1852 -2.72618,0.74129 -3.83914,1.83632 -0.21218,0.20876 -0.39207,0.37886 -0.39976,0.378 -0.008,-7.6e-4 -0.0668,-0.0847 -0.13147,-0.18632 z"
       id="path1369"
       inkscape:export-xdpi="320"
       inkscape:export-ydpi="320" />
    <path
       style="fill:#ffffff;fill-opacity:1;stroke:#f2f2f2;stroke-width:0;stroke-linecap:round;stroke-linejoin:round;stroke-miterlimit:4;stroke-dasharray:none;stroke-opacity:1"
       d="m 110.49246,118.88874 c -0.56885,-0.0264 -1.57439,-0.11076 -2.07154,-0.17382 l -0.33422,-0.0424 0.32294,-0.005 c 0.30289,-0.005 0.3371,-0.0129 0.55086,-0.12713 0.58715,-0.31374 1.04191,-0.74574 1.46549,-1.39214 1.04164,-1.58957 1.48171,-4.22923 1.09458,-6.56557 -0.0425,-0.25665 -0.1202,-0.52774 -0.25345,-0.88456 -0.60708,-1.62572 -0.96248,-2.3012 -1.48296,-2.81851 l -0.24459,-0.2431 -0.055,-0.29415 c -0.0302,-0.16178 -0.0627,-0.3262 -0.072,-0.36538 -0.0154,-0.0644 0.003,-0.0748 0.19704,-0.10917 0.9089,-0.16114 1.75954,0.14558 2.4849,0.89599 0.66369,0.6866 1.17988,1.59298 1.72852,3.03511 0.11404,0.29976 0.25084,0.61297 0.30399,0.69604 0.43725,0.68325 0.66058,1.76398 0.57592,2.7869 -0.095,1.14814 -0.4823,2.42592 -1.14523,3.77869 -0.3146,0.64195 -0.65688,1.21017 -0.88758,1.47345 -0.2061,0.2352 -0.42893,0.31295 -1.01752,0.35501 -0.46596,0.0333 -0.4437,0.0333 -1.16013,8e-5 z"
       id="path1371"
       inkscape:export-xdpi="320"
       inkscape:export-ydpi="320" />
    <path
       style="fill:#c69377;fill-opacity:1;stroke:#f2f2f2;stroke-width:0;stroke-linecap:round;stroke-linejoin:round;stroke-miterlimit:4;stroke-dasharray:none;stroke-opacity:1"
       d="m 96.751494,131.66134 c -0.150858,-0.20094 -0.489498,-0.57998 -0.752432,-0.84233 -0.671545,-0.67005 -1.328862,-1.07846 -2.095873,-1.30225 -0.134938,-0.0394 -0.348909,-0.15253 -0.475504,-0.25147 -0.126624,-0.0989 -0.526502,-0.33844 -0.888681,-0.53224 -0.875355,-0.46837 -1.226863,-0.80244 -1.579156,-1.50082 -0.134421,-0.26639 -0.299341,-0.6688 -0.366596,-0.89422 -0.06687,-0.22553 -0.140019,-0.45297 -0.162167,-0.50552 -0.02549,-0.0619 -0.221641,-0.17677 -0.5538,-0.32435 -1.677634,-0.74545 -2.748449,-1.55558 -3.922851,-2.96787 -0.258656,-0.31104 -0.575323,-0.68858 -0.703723,-0.83897 -0.128361,-0.1504 -0.225712,-0.28031 -0.216278,-0.2887 0.03101,-0.0276 2.584409,-1.42449 3.932176,-2.15119 2.331372,-1.25705 3.822138,-2.03006 5.840056,-3.02827 l 1.972049,-0.97551 0.537842,0.81195 c 1.037127,1.56572 1.518538,2.57929 1.861849,3.91998 0.152348,0.59495 0.495526,1.30964 0.869535,1.81086 0.31417,0.42103 1.01012,1.21995 1.74467,2.00281 l 0.47537,0.50662 0.0329,0.43677 c 0.0875,1.16051 0.0948,2.18438 0.0198,2.76252 -0.10932,0.84261 -0.44928,2.15767 -0.66648,2.57809 -0.26021,0.50366 -0.81084,1.03962 -1.36061,1.32437 -0.783786,0.40594 -1.710285,0.61046 -2.780232,0.61373 l -0.487946,0.001 z"
       id="path1379"
       inkscape:export-xdpi="320"
       inkscape:export-ydpi="320" />
    <path
       style="fill:#c69377;fill-opacity:1;stroke:#f2f2f2;stroke-width:0;stroke-linecap:round;stroke-linejoin:round;stroke-miterlimit:4;stroke-dasharray:none;stroke-opacity:1"
       d="m 107.08357,118.33879 c -1.78585,-0.10679 -3.40857,-0.45847 -4.39858,-0.95325 -0.18981,-0.0949 -0.50654,-0.22413 -0.70386,-0.28727 -1.42616,-0.45639 -2.511293,-1.38769 -3.330414,-2.85827 -0.103248,-0.18537 -0.398221,-0.7935 -0.655491,-1.35142 -0.257275,-0.55791 -1.226173,-2.62054 -2.153109,-4.58363 l -1.685344,-3.56924 0.03766,-0.48899 c 0.178715,-2.32042 0.762272,-3.57466 2.107643,-4.529972 0.496829,-0.352786 0.695788,-0.445912 1.475185,-0.690496 2.024768,-0.63536 3.642108,-0.928862 5.370138,-0.974401 1.24491,-0.0328 2.01191,0.02902 2.95978,0.238575 0.66252,0.146471 1.53273,0.440693 1.58571,0.536142 0.0216,0.03891 0.3838,1.852752 0.80489,4.030762 l 0.7656,3.96001 0.26074,0.25301 c 0.1434,0.13917 0.3249,0.34567 0.40331,0.4589 0.47206,0.68165 1.1919,2.47136 1.3137,3.26619 0.33383,2.17853 -0.0943,4.65376 -1.06802,6.17418 -0.27157,0.42408 -0.84729,1.00018 -1.22367,1.22448 -0.26558,0.15829 -0.30155,0.16662 -0.75341,0.17453 -0.26098,0.005 -0.76159,-0.009 -1.11246,-0.0298 z"
       id="path1381"
       inkscape:export-xdpi="320"
       inkscape:export-ydpi="320" />
    <path
       style="fill:#c69377;fill-opacity:1;stroke:#f2f2f2;stroke-width:0;stroke-linecap:round;stroke-linejoin:round;stroke-miterlimit:4;stroke-dasharray:none;stroke-opacity:1"
       d="m 71.920452,41.114707 c -0.980373,-0.06984 -1.820696,-0.266866 -2.825034,-0.662355 -0.382263,-0.150526 -1.043746,-0.451065 -1.273726,-0.578699 -0.143211,-0.07947 -0.149488,-0.08671 -0.137134,-0.157746 0.05103,-0.294292 0.06537,-0.539035 0.05212,-0.889576 -0.02695,-0.71218 -0.170267,-1.251507 -0.517516,-1.947372 -0.154395,-0.30948 -0.186764,-0.355398 -0.514472,-0.730756 -0.434837,-0.498075 -0.980136,-1.038766 -1.234851,-1.224426 -0.179958,-0.131164 -0.453228,-0.305222 -0.507135,-0.323009 -0.02856,-0.0094 -0.118322,-0.439166 -0.179022,-0.856304 -0.03622,-0.249562 -0.04475,-0.448402 -0.04547,-1.062929 -7.98e-4,-0.692676 0.0052,-0.810339 0.07243,-1.40582 0.04031,-0.357432 0.07937,-0.686369 0.08678,-0.730974 0.01229,-0.07407 0.02466,-0.05142 0.142308,0.259412 0.257408,0.680782 0.651689,1.371711 1.089014,1.908562 0.283544,0.348075 0.999366,1.101589 1.222489,1.286837 0.870072,0.722435 1.846911,1.238802 2.677252,1.415207 1.259476,0.267597 2.38569,-0.09839 3.316188,-1.077619 0.302507,-0.31837 0.483467,-0.560182 0.774201,-1.034544 0.2358,-0.384727 0.412695,-0.693253 1.336541,-2.331004 0.453421,-0.803797 0.852397,-1.408207 0.929736,-1.408437 0.0107,-1.79e-4 0.174344,0.184098 0.363556,0.409192 l 0.34402,0.409256 0.08672,0.859199 c 0.122353,1.212206 0.145797,1.618366 0.131407,2.276481 -0.01323,0.605612 -0.04974,1.024015 -0.136679,1.567077 l -0.05418,0.338387 0.11751,0.05912 c 0.315615,0.158724 0.582691,0.516236 1.031748,1.381096 l 0.217341,0.418583 -0.226626,0.278343 c -1.153545,1.416744 -2.220504,2.348681 -3.326884,2.905867 -0.833474,0.419757 -1.606751,0.617328 -2.528308,0.646017 -0.201369,0.0063 -0.419294,0.0076 -0.484271,0.0031 z"
       id="path1387"
       inkscape:export-xdpi="320"
       inkscape:export-ydpi="320" />
    <path
       style="fill:#c69377;fill-opacity:1;stroke:#f2f2f2;stroke-width:0;stroke-linecap:round;stroke-linejoin:round;stroke-miterlimit:4;stroke-dasharray:none;stroke-opacity:1"
       d="m 39.528626,71.107064 c -0.578349,-0.12516 -1.087198,-0.644195 -2.106631,-2.148835 -0.342182,-0.505059 -0.338515,-0.498072 -0.380526,-0.725481 -0.159702,-0.864563 -0.104908,-1.521682 0.2313,-2.773647 0.05061,-0.18849 0.133183,-0.504445 0.183473,-0.702102 l 0.09143,-0.359375 0.528018,-0.536202 c 0.648763,-0.658792 0.857723,-0.905369 1.061285,-1.252246 0.09157,-0.156055 0.185133,-0.367552 0.220826,-0.499172 0.01997,-0.07395 0.02755,-0.08091 0.181967,-0.17018 0.622084,-0.359538 1.14272,-0.516553 1.719465,-0.518596 0.280666,-9.53e-4 0.508717,0.02886 0.817279,0.106903 0.36242,0.09166 0.694091,0.225769 1.489327,0.602132 0.214612,0.10157 0.401043,0.184642 0.414296,0.184601 0.01331,5.5e-5 0.0978,-0.03769 0.188081,-0.08299 0.942508,-0.476588 1.497378,-1.038612 1.723213,-1.745445 0.05324,-0.166614 0.05398,-0.167766 0.137092,-0.213546 0.246248,-0.135603 0.552092,-0.245415 0.860123,-0.308788 0.16834,-0.03467 0.234717,-0.03904 0.59058,-0.03883 0.315811,7.3e-5 0.45233,0.0076 0.643219,0.03494 0.133288,0.01914 0.392735,0.05652 0.576564,0.08315 0.18382,0.0266 0.398138,0.05318 0.476252,0.05903 0.187263,0.01401 0.348279,0.06743 0.647757,0.21494 1.114554,0.548994 2.790146,1.853345 3.382281,2.63291 0.251507,0.331121 0.333887,0.559087 0.23559,0.651986 -0.07956,0.07527 -0.168615,0.09423 -0.446083,0.09502 -0.437256,0.0013 -0.349032,0.02982 -1.937012,-0.625934 l -1.415916,-0.584693 -1.053226,-0.277165 c -0.57927,-0.152445 -1.060788,-0.280043 -1.070024,-0.283552 -0.01337,-0.0053 -0.098,0.262883 -0.0858,0.271315 0.0015,0.0016 0.477142,0.126789 1.056412,0.279066 l 1.053229,0.276871 1.408233,0.58133 1.408224,0.581332 0.147603,0.189447 c 0.514596,0.660322 0.813538,1.242299 0.815101,1.586856 9.65e-4,0.241575 -0.107891,0.346098 -0.404112,0.387575 -0.326886,0.04577 -0.962291,-0.08283 -1.687178,-0.341454 -0.151764,-0.05414 -1.477477,-0.610879 -2.946041,-1.237194 -1.46856,-0.626306 -2.676893,-1.138712 -2.68518,-1.138695 -0.02011,-3.8e-5 -0.122241,0.239699 -0.107806,0.253007 0.0059,0.0055 1.215595,0.523356 2.687502,1.150256 l 2.676183,1.139833 0.134061,0.149873 c 0.389072,0.434839 0.602247,0.815953 0.57191,1.022503 -0.03015,0.205435 -0.324888,0.351998 -0.781222,0.388469 l -0.141809,0.01135 -0.01198,-0.05209 c -0.01269,-0.05773 -0.07963,-0.119223 -0.129311,-0.119055 -0.05399,1.13e-4 -0.12951,0.04858 -0.139637,0.09047 -0.0094,0.03789 -0.04606,0.02163 -1.032516,-0.457388 l -1.022784,-0.496701 -0.680494,0.236378 -0.680475,0.236476 -0.824387,-0.517558 c -0.453408,-0.284654 -0.847893,-0.531517 -0.876623,-0.548577 l -0.05224,-0.031 -0.07083,0.118109 c -0.03899,0.06498 -0.06575,0.123129 -0.05953,0.129344 0.0062,0.0065 0.423361,0.270296 0.926947,0.586899 l 0.91562,0.575642 0.483907,-0.167498 c 0.266176,-0.09205 0.577768,-0.199671 0.692501,-0.238953 l 0.208702,-0.07107 0.969071,0.470633 c 0.532995,0.258848 0.972585,0.474129 0.976883,0.478397 0.0074,0.0071 -0.403434,1.122872 -0.427001,1.161265 -0.0046,0.0088 -0.523982,0.09753 -1.152933,0.197999 l -1.143526,0.182702 -0.93346,-0.291969 c -0.513403,-0.160588 -0.943167,-0.291939 -0.955019,-0.291903 -0.01227,-3.81e-4 -0.03381,0.04421 -0.04934,0.100443 -0.03845,0.138559 -0.157588,0.370373 -0.261345,0.508421 -0.322079,0.428505 -0.968738,0.883364 -1.830907,1.287862 l -0.25855,0.121308 -0.34859,0.03083 c -0.613896,0.05425 -1.02126,0.11325 -1.935949,0.280398 -0.282997,0.05173 -0.594793,0.104961 -0.692866,0.118339 -0.220091,0.03 -0.578765,0.03095 -0.712936,0.0019 z"
       id="path1389"
       inkscape:export-xdpi="320"
       inkscape:export-ydpi="320" />
    <path
       style="fill:#c69377;fill-opacity:1;stroke:#f2f2f2;stroke-width:0;stroke-linecap:round;stroke-linejoin:round;stroke-miterlimit:4;stroke-dasharray:none;stroke-opacity:1"
       d="m 137.29364,66.409395 c -0.11909,-0.05073 -0.38413,-0.245341 -0.56402,-0.414145 -0.0709,-0.06649 -0.52677,-0.600746 -1.01316,-1.18726 -0.865,-1.043076 -0.89222,-1.071925 -1.24534,-1.319843 -0.90494,-0.635335 -1.77914,-1.038676 -2.86994,-1.324137 -0.47757,-0.124977 -0.79178,-0.189472 -2.00579,-0.41171 -0.55155,-0.100969 -1.1343,-0.212428 -1.29499,-0.247685 -0.16069,-0.03525 -0.30761,-0.06406 -0.32647,-0.064 -0.0189,9.3e-5 -0.0602,0.05502 -0.0919,0.122135 l -0.0575,0.12204 0.51935,0.496845 c 0.79582,0.761333 1.1554,1.01166 1.89162,1.316888 1.16486,0.482943 2.11494,1.031805 2.23374,1.290433 0.034,0.07404 0.0304,0.09301 -0.0251,0.133919 -0.23498,0.17292 -0.9926,0.245122 -2.01219,0.191758 -0.39937,-0.0209 -0.94304,-0.06041 -1.20816,-0.08779 l -0.48202,-0.04978 -0.47261,-0.328104 c -0.25992,-0.180459 -0.82612,-0.596676 -1.2582,-0.92493 -0.88205,-0.670092 -1.29767,-0.960921 -1.68943,-1.182156 -0.35359,-0.199685 -0.83969,-0.402271 -1.18306,-0.493053 l -0.27767,-0.07341 -0.41109,-0.41856 c -0.2261,-0.230208 -0.60857,-0.629299 -0.84993,-0.886869 -0.95276,-1.016763 -1.55272,-1.473037 -2.76321,-2.10146 -0.3715,-0.192865 -1.02932,-0.537571 -1.46183,-0.766014 -4.51771,-2.386201 -7.15305,-3.457743 -10.25253,-4.16877 -0.45312,-0.103944 -1.5403,-0.519589 -2.1096,-0.806526 -1.15476,-0.582028 -3.60678,-2.151822 -7.043935,-4.509561 -0.580025,-0.397876 -1.148424,-0.785528 -1.263118,-0.861457 -0.114688,-0.07593 -0.208872,-0.146303 -0.209282,-0.156374 -0.0012,-0.02602 1.360475,-0.271211 1.50434,-0.270889 0.191165,4.44e-4 0.72563,-0.102448 0.998334,-0.192183 1.613091,-0.530808 2.359191,-2.0598 2.225631,-4.561069 -0.0152,-0.284764 -0.024,-0.521849 -0.0196,-0.526867 0.0207,-0.02338 1.2617,0.407884 1.72818,0.600588 1.75026,0.723049 3.33726,1.705449 5.33402,3.301906 0.68829,0.5503 2.56757,2.139717 3.75272,3.173885 3.59674,3.138532 6.83043,5.606416 9.86061,7.525417 1.13808,0.720731 0.98607,0.653284 1.55958,0.692019 2.07084,0.13987 3.91467,0.631278 5.76229,1.535735 0.48845,0.23911 0.70907,0.367943 0.90152,0.526461 0.14014,0.115431 0.60893,0.483981 1.04176,0.818995 1.73049,1.339411 1.88947,1.492089 3.76904,3.619732 l 1.44729,1.638308 0.0644,0.328201 c 0.0802,0.408699 0.0884,0.822941 0.0176,0.892782 -0.0421,0.04149 -0.0659,0.04253 -0.15032,0.0066 z"
       id="path1391"
       inkscape:export-xdpi="320"
       inkscape:export-ydpi="320" />
    <path
       style="fill:#dab566;fill-opacity:1;stroke:#f2f2f2;stroke-width:0;stroke-linecap:round;stroke-linejoin:round;stroke-miterlimit:4;stroke-dasharray:none;stroke-opacity:1"
       d="m 123.9895,154.32775 c -0.60491,-0.0429 -1.01269,-0.14838 -1.16708,-0.30183 -0.0533,-0.053 -0.0589,-0.0659 -0.0447,-0.10353 0.0486,-0.12907 0.16478,-0.65212 0.21314,-0.95975 0.0689,-0.43823 0.0831,-0.69718 0.0942,-1.71864 l 0.0108,-0.99175 -0.26529,-0.53593 c -0.31091,-0.62807 -0.53962,-1.12316 -0.84866,-1.8371 -0.2689,-0.62118 -0.63079,-1.48708 -0.63086,-1.50942 -1.2e-4,-0.0257 0.5048,-0.53972 0.7066,-0.71938 1.00515,-0.89488 2.05799,-1.36575 3.4042,-1.52249 0.31325,-0.0365 0.62308,-0.0585 1.13731,-0.0809 l 0.4526,-0.0197 0.26826,0.13331 c 0.45363,0.22542 0.82462,0.36589 1.10287,0.41757 0.0568,0.0105 0.18084,0.016 0.27566,0.0121 0.19628,-0.008 0.29144,-0.0433 0.39311,-0.14561 0.20697,-0.20824 0.20961,-0.6462 0.008,-1.27931 -0.0231,-0.0724 -0.0395,-0.1341 -0.0366,-0.13708 0.009,-0.009 0.4937,0.26243 0.65694,0.36703 0.86239,0.55262 1.29465,1.23961 1.44304,2.29339 0.0432,0.30652 0.0528,0.8774 0.0234,1.38563 -0.0532,0.91934 -0.10207,2.26454 -0.11204,3.08231 -0.0118,0.96838 0.028,1.81974 0.12042,2.57475 l 0.0371,0.3032 -0.12269,0.16428 c -0.15121,0.20246 -0.40016,0.46549 -0.54645,0.57735 -0.13415,0.10257 -0.40598,0.23899 -0.54967,0.27585 -0.22487,0.0577 -0.36901,0.0636 -0.85398,0.035 l -0.45946,-0.0271 -0.61787,0.0625 c -1.00618,0.1017 -1.82514,0.16635 -2.56351,0.20237 -0.4159,0.0203 -1.26116,0.0219 -1.52845,0.003 z"
       id="path1393"
       inkscape:export-xdpi="320"
       inkscape:export-ydpi="320" />
    <path
       style="fill:#dab566;fill-opacity:1;stroke:#f2f2f2;stroke-width:0;stroke-linecap:round;stroke-linejoin:round;stroke-miterlimit:4;stroke-dasharray:none;stroke-opacity:1"
       d="m 119.8938,134.13961 c -0.35641,-0.0462 -0.83806,-0.27009 -1.27911,-0.59467 -0.43997,-0.32379 -1.2224,-1.13422 -1.58823,-1.64508 -1.14576,-1.59999 -1.97045,-2.92437 -2.48129,-3.98479 -0.37112,-0.77036 -0.51117,-1.15027 -0.99033,-2.68639 l -0.11973,-0.38384 -2.09666,-2.86454 c -1.15317,-1.5755 -2.09317,-2.86735 -2.0889,-2.87079 0.004,-0.003 0.27093,0.0142 0.59257,0.0391 0.37784,0.0293 0.88626,0.0399 1.43667,0.0299 0.78252,-0.0142 0.87226,-0.0219 1.1022,-0.0952 0.21154,-0.0674 0.27977,-0.10925 0.44037,-0.26974 0.27297,-0.27276 0.61337,-0.81874 0.98953,-1.5871 0.40292,-0.82302 0.61456,-1.3514 0.82593,-2.06202 0.27459,-0.92317 0.37538,-1.55267 0.37384,-2.3349 -0.001,-0.62017 -0.0603,-1.07077 -0.20326,-1.54873 -0.0322,-0.10763 0.0383,-0.0364 0.45028,0.4552 1.26593,1.51045 2.34852,3.08619 3.36038,4.89113 0.3901,0.69584 1.16385,2.24326 1.49615,2.99215 0.18587,0.41887 0.31543,0.65751 0.47986,0.88387 1.29598,1.78403 2.28544,4.41593 2.62583,6.98452 0.088,0.66369 0.0931,2.20912 0.009,2.7562 -0.23211,1.51261 -0.81912,2.63509 -1.69267,3.23675 -0.54862,0.37785 -1.28267,0.70762 -1.50665,0.67684 -0.0196,-0.003 -0.0808,-0.0107 -0.1359,-0.0179 z"
       id="path1395"
       inkscape:export-xdpi="320"
       inkscape:export-ydpi="320" />
    <path
       style="fill:#c69377;fill-opacity:1;stroke:#f2f2f2;stroke-width:0;stroke-linecap:round;stroke-linejoin:round;stroke-miterlimit:4;stroke-dasharray:none;stroke-opacity:1"
       d="m 70.531077,35.201319 c -0.874131,-0.103191 -1.752622,-0.494 -2.67634,-1.190609 -0.39446,-0.297477 -0.511475,-0.404988 -0.938821,-0.862605 -0.66968,-0.717096 -1.045382,-1.241392 -1.356592,-1.893107 -0.283338,-0.593301 -0.590817,-1.529178 -0.59166,-1.800685 -2.44e-4,-0.07971 -0.01607,-0.127981 -0.04191,-0.128261 -0.02423,1.93e-4 -0.248767,-0.554119 -0.537321,-1.32636 l -0.49561,-1.326 -0.660191,-3.221947 c -0.363098,-1.772061 -0.691475,-3.387212 -0.729714,-3.589217 -0.197853,-1.045036 -0.328405,-2.00745 -0.385053,-2.838583 l -0.04098,-0.601231 0.759192,-1.296262 c 0.502385,-0.85778 0.771416,-1.286632 0.795329,-1.267785 0.865697,0.682194 5.396889,4.095946 5.42313,4.085726 0.02675,-0.0104 5.042906,-3.863145 5.408662,-4.154209 0.02619,-0.0208 0.478182,0.443815 1.435323,1.475427 l 1.397118,1.505819 -0.01024,0.788016 c -0.0064,0.490863 -0.121359,2.577315 -0.304892,5.532974 l -0.29464,4.744965 -0.204921,0.683808 c -0.187844,0.626834 -0.216994,0.697922 -0.349755,0.852994 -0.29599,0.345739 -0.564901,0.780072 -1.327344,2.143905 -0.559108,1.000117 -1.014937,1.76949 -1.229427,2.075101 -0.527128,0.751069 -1.310424,1.335346 -2.041125,1.522527 -0.254061,0.06505 -0.788727,0.110726 -1.002004,0.08554 z"
       id="path1399"
       inkscape:export-xdpi="320"
       inkscape:export-ydpi="320" />
    <path
       style="fill:#9b7663;fill-opacity:1;stroke:#f2f2f2;stroke-width:0;stroke-linecap:round;stroke-linejoin:round;stroke-miterlimit:4;stroke-dasharray:none;stroke-opacity:1"
       d="m 66.267927,15.48987 c -1.510248,-1.151321 -2.751594,-2.092915 -2.758537,-2.092446 -0.0073,1.65e-4 -0.329884,0.544891 -0.717642,1.209817 -0.584424,1.002143 -0.706467,1.197352 -0.713442,1.141185 -0.01365,-0.110072 0.03944,-0.86562 0.08866,-1.261041 0.0422,-0.339161 0.174673,-1.060359 0.230105,-1.252753 0.05234,-0.181739 1.195738,-1.393866 1.822129,-1.931685 1.419358,-1.218635 2.713447,-1.8700692 4.206485,-2.1175034 0.355259,-0.058873 1.239337,-0.074084 1.645693,-0.028311 1.777962,0.2002714 3.55135,1.0387845 5.67283,2.6822775 l 0.34671,0.268595 0.143171,0.347088 c 0.360753,0.874587 0.635954,1.728885 0.803755,2.495074 0.09448,0.431364 0.21121,1.164706 0.199907,1.255834 -0.0057,0.04596 -0.241901,-0.198256 -1.346076,-1.392058 -0.736532,-0.796318 -1.35228,-1.443595 -1.368329,-1.438403 -0.01604,0.0052 -1.254662,0.954386 -2.75248,2.109307 -1.497818,1.154922 -2.730892,2.099517 -2.740164,2.099097 -0.0092,-2.86e-4 -1.252519,-0.942754 -2.762769,-2.094075 z"
       id="path1401"
       inkscape:export-xdpi="320"
       inkscape:export-ydpi="320" />
    <text
       inkscape:export-ydpi="320"
       inkscape:export-xdpi="320"
       xml:space="preserve"
       style="font-style:normal;font-weight:normal;font-size:10.5833px;line-height:1.25;font-family:sans-serif;fill:#000000;fill-opacity:1;stroke:none;stroke-width:0.264583"
       x="128.5119"
       y="22.678572"
       id="text1409"><tspan
         sodipodi:role="line"
         id="tspan1407"
         style="stroke-width:0.264583"
         x="128.5119"
         y="22.678572" /></text>
    <path
       sodipodi:nodetypes="ccc"
       id="path937-0"
       d="m 78.199074,28.104147 c -0.08304,0.197938 0.194189,0.747746 0.8517,1.398131 0.695444,0.702094 0.490483,2.372312 0.490483,2.372312"
       style="fill:none;stroke:#d71818;stroke-width:0.932077;stroke-linecap:butt;stroke-linejoin:miter;stroke-miterlimit:4;stroke-dasharray:none;stroke-opacity:1"
       inkscape:export-xdpi="320"
       inkscape:export-ydpi="320" />
    <path
       style="fill:url(#linearGradient3508);fill-opacity:1;stroke:#000000;stroke-width:0;stroke-linecap:round;stroke-linejoin:round;stroke-miterlimit:4;stroke-dasharray:none;stroke-opacity:1;filter:url(#filter4192)"
       d="M 62.549728,67.161012 C 62.41748,66.633137 62.177906,65.63035 62.01732,64.932599 61.457114,62.49827 61.1462,61.418534 60.628454,60.109259 c -0.260561,-0.658894 -0.754293,-1.667658 -1.084037,-2.214848 -0.131483,-0.218136 -0.231519,-0.404182 -0.222361,-0.413402 0.02433,-0.02451 0.230978,0.05654 1.261828,0.494868 0.509256,0.216543 1.088779,0.451429 1.287828,0.521957 1.002733,0.355308 2.095528,0.576757 3.587698,0.727031 0.358418,0.0361 0.817112,0.08889 1.019322,0.117321 0.498119,0.07004 1.918041,0.09457 2.49227,0.04307 0.964749,-0.08654 2.070255,-0.278648 3.352634,-0.582608 0.429542,-0.101827 1.064685,-0.219251 1.639923,-0.30322 0.516358,-0.07538 1.154904,-0.174246 1.418997,-0.219717 0.264091,-0.04544 0.483107,-0.07971 0.486675,-0.07621 0.03288,0.03272 1.625107,5.682362 1.606421,5.700152 -0.06482,0.06169 -1.989216,0.521082 -5.14942,1.229328 -4.536106,1.01656 -6.685827,1.674187 -9.040686,2.765689 -0.263494,0.12211 -0.482726,0.222102 -0.487228,0.222034 -0.0041,2.31e-4 -0.11637,-0.431866 -0.248618,-0.95974 z"
       id="path3484"
       inkscape:export-xdpi="320"
       inkscape:export-ydpi="320" />
    <path
       style="opacity:1;fill:url(#linearGradient3706);fill-opacity:1;stroke:none;stroke-width:0;stroke-linecap:round;stroke-linejoin:round;stroke-miterlimit:4;stroke-dasharray:none;stroke-opacity:1;filter:url(#filter4244)"
       d="m 88.813764,51.921408 c 0.0051,0.0619 0.02813,0.251428 0.05108,0.421162 0.02295,0.169735 0.07811,0.809342 0.122588,1.421347 0.150085,2.065351 0.185862,2.28763 0.595326,3.698684 0.242336,0.835079 0.406782,1.321169 0.59071,1.746 0.140191,0.323803 0.252828,0.592059 0.250301,0.596121 -0.009,0.01449 -12.601519,4.028186 -12.613402,4.02035 -0.01958,-0.01293 -1.620617,-5.638228 -1.610293,-5.657842 0.0052,-0.0098 0.415803,-0.09986 0.912521,-0.200084 0.496717,-0.100227 1.282557,-0.274422 1.746313,-0.387104 1.111311,-0.270021 3.328215,-0.99869 4.047816,-1.330466 1.129873,-0.520935 2.528117,-1.354087 3.5069,-2.08961 0.607863,-0.456788 1.616112,-1.405965 2.019251,-1.900943 0.162432,-0.199435 0.312477,-0.382309 0.333435,-0.406388 0.02407,-0.02764 0.04155,-0.0023 0.04745,0.06878 z"
       id="path3698"
       inkscape:export-xdpi="320"
       inkscape:export-ydpi="320" />
    <path
       style="fill:none;stroke:#ffffff;stroke-width:1.165;stroke-linecap:butt;stroke-linejoin:miter;stroke-opacity:1;stroke-miterlimit:4;stroke-dasharray:none;opacity:1;filter:url(#filter4654)"
       d="m 75.878721,57.570499 2.173361,7.110677"
       id="path4248"
       inkscape:export-xdpi="320"
       inkscape:export-ydpi="320" />
    <path
       inkscape:export-ydpi="320"
       inkscape:export-xdpi="320"
       style="opacity:1;fill:#ffffff;fill-opacity:1;stroke:#ffffff;stroke-width:0.0694977;stroke-linecap:round;stroke-linejoin:round;stroke-miterlimit:4;stroke-dasharray:none;stroke-opacity:1"
       d=""
       id="path4666"
       transform="scale(0.26458333)" />
    <path
       style="opacity:1;fill:#ffffff;fill-opacity:1;stroke:#ffffff;stroke-width:0.0694977;stroke-linecap:round;stroke-linejoin:round;stroke-miterlimit:4;stroke-dasharray:none;stroke-opacity:1"
       d="m 311.93984,110.23989 c -2.53039,-0.40488 -5.55915,-0.8139 -7.75765,-1.04764 -1.79671,-0.19102 -3.97253,-0.3603 -5.19282,-0.404 -0.14324,-0.005 -0.27601,-0.0125 -0.29506,-0.0164 -0.0864,-0.0175 -0.78072,-0.97501 -1.058,-1.45897 -0.15669,-0.27347 -0.18323,-0.33145 -0.15174,-0.33145 0.0645,0 1.45989,0.26277 2.353,0.44312 1.86865,0.37735 3.35971,0.71783 6.56751,1.49971 3.42897,0.83579 4.44364,1.06909 5.882,1.35245 0.18449,0.0363 -0.036,0.0129 -0.34724,-0.0369 z"
       id="path4670"
       transform="scale(0.26458333)"
       inkscape:export-xdpi="320"
       inkscape:export-ydpi="320" />
    <path
       style="opacity:1;fill:#ffffff;fill-opacity:1;stroke:#ffffff;stroke-width:0.196569;stroke-linecap:round;stroke-linejoin:round;stroke-miterlimit:4;stroke-dasharray:none;stroke-opacity:1"
       d="m 209.97768,130.59041 c 0.0246,-0.0252 1.38058,-1.01518 3.01339,-2.20004 1.63281,-1.18487 3.21461,-2.3329 3.51511,-2.55118 0.5432,-0.39459 0.59518,-0.41993 9.01261,-4.39337 4.65644,-2.19807 8.48296,-3.97978 8.50338,-3.95936 0.063,0.063 0.17666,0.68472 0.2024,1.10729 l 0.0245,0.40179 -12.10463,5.80357 c -6.65755,3.19196 -12.12865,5.8111 -12.15801,5.82031 -0.0358,0.0112 -0.0386,0.002 -0.009,-0.029 z"
       id="path4672"
       transform="scale(0.26458333)"
       inkscape:export-xdpi="320"
       inkscape:export-ydpi="320" />
    <path
       style="opacity:1;fill:#ffffff;fill-opacity:1;stroke:#ffffff;stroke-width:0.196569;stroke-linecap:round;stroke-linejoin:round;stroke-miterlimit:4;stroke-dasharray:none;stroke-opacity:1"
       d="m 297.218,139.67634 c -0.0838,-0.15346 -0.37321,-0.71094 -0.64305,-1.23884 -1.12444,-2.19983 -1.99716,-3.5157 -2.91033,-4.38813 -0.33307,-0.31822 -0.83264,-0.71699 -0.94526,-0.75452 -0.0339,-0.0113 -0.0142,-0.24239 0.0641,-0.75158 0.65688,-4.26941 0.67564,-7.98055 0.0695,-13.74863 -0.0735,-0.69977 -0.20152,-1.94814 -0.28442,-2.77415 -0.11504,-1.14626 -0.17006,-1.53934 -0.23241,-1.66023 -0.0449,-0.0871 -0.74128,-0.94449 -1.54745,-1.90528 l -1.46576,-1.74689 0.69943,-2.28485 c 0.38469,-1.25667 0.71282,-2.29835 0.72916,-2.31485 0.0289,-0.0292 0.96666,0.0611 2.28419,0.21986 l 0.64732,0.078 0.0547,0.42411 c 0.20115,1.55825 1.33214,3.40641 3.39358,5.54545 0.30094,0.31227 0.63833,0.70868 0.74974,0.88091 0.49377,0.76329 0.82589,1.90752 0.98021,3.37706 0.0726,0.69147 0.0901,2.63044 0.0297,3.28794 l -0.0318,0.34584 0.13511,0.0226 c 0.2375,0.0397 3.39008,0.42065 3.39992,0.41081 0.0334,-0.0334 0.10572,-1.32442 0.10572,-1.88731 v -0.67744 l 0.39063,0.0189 c 0.21484,0.0104 5.17187,0.17833 11.01562,0.37314 10.2908,0.34305 16.41873,0.49301 28.53795,0.69836 l 1.70759,0.0289 v -1.07451 -1.07451 l -0.41295,-0.025 c -0.22712,-0.0138 -4.29018,-0.0962 -9.02902,-0.18324 -10.1801,-0.18692 -9.34431,-0.16442 -22.18564,-0.59711 l -10.13206,-0.34141 -0.0925,-0.57205 -0.0925,-0.57205 0.31387,0.0261 c 0.17262,0.0144 1.0873,0.0771 2.03261,0.13946 1.64978,0.10882 1.7913,0.11147 3.52679,0.066 1.84794,-0.0484 5.14567,-0.1129 8.21428,-0.16073 1.57083,-0.0245 1.79752,-0.0379 2.63393,-0.15626 3.02175,-0.42747 5.86755,-0.58774 8.75915,-0.49332 2.32184,0.0758 3.30893,0.14511 7.66942,0.53834 1.33817,0.12067 2.85491,0.25042 3.37054,0.28832 0.51562,0.0379 1.06306,0.0798 1.21652,0.0932 0.24652,0.0215 0.27913,0.015 0.27996,-0.0551 5.3e-4,-0.0436 0.0302,-0.53018 0.0659,-1.08118 0.0357,-0.55099 0.0604,-1.00621 0.0549,-1.01159 -0.006,-0.005 -0.46211,-0.0426 -1.01456,-0.0826 -0.55246,-0.0401 -2.33036,-0.19184 -3.95089,-0.33726 -5.39881,-0.48448 -5.91811,-0.51327 -9.24108,-0.51246 -2.18084,5.4e-4 -2.92326,0.0163 -3.72767,0.079 -1.22824,0.0958 -2.70989,0.2598 -3.92858,0.43474 -2.45276,0.3521 -5.39224,0.52039 -8.28125,0.47411 -1.86828,-0.0299 -2.26014,-0.0484 -5.37946,-0.25359 -1.11719,-0.0735 -2.30246,-0.14839 -2.63393,-0.16644 l -0.60268,-0.0328 -0.24629,-0.49107 c -0.13546,-0.27009 -0.32128,-0.60698 -0.41295,-0.74864 -0.0917,-0.14166 -0.16665,-0.26981 -0.16665,-0.28477 0,-0.0333 0.46779,2.2e-4 2.00893,0.14377 2.61468,0.24357 5.51236,0.62536 9.44083,1.24389 0.39224,0.0618 0.72548,0.0977 0.74053,0.0799 0.0151,-0.0178 0.0957,-0.47087 0.17919,-1.0068 0.0835,-0.53593 0.16458,-0.99507 0.18018,-1.0203 0.0191,-0.0308 0.18008,-0.0227 0.49158,0.0248 1.60926,0.24549 2.55177,0.31153 4.04138,0.28314 1.57595,-0.03 2.62023,-0.17804 3.83256,-0.54319 0.20985,-0.0632 0.80823,-0.16518 1.45089,-0.24725 2.50632,-0.32007 2.81904,-0.35855 3.4375,-0.42301 4.32293,-0.45061 7.71848,0.15085 11.58482,2.05202 3.46461,1.70362 7.07455,4.37397 11.40001,8.43281 1.23868,1.16234 7.37814,7.37891 8.16111,8.26363 2.43216,2.74821 4.3022,5.42351 6.16456,8.81909 0.4666,0.85074 1.39486,2.66399 1.39486,2.72471 0,0.0248 -4.42823,0.041 -11.21257,0.041 h -11.21257 l -0.33877,-0.26182 c -1.58056,-1.2215 -3.55303,-1.94438 -5.98609,-2.19381 -1.25608,-0.12876 -8.14372,-1.15303 -19.05282,-2.83337 -7.6642,-1.18052 -12.94837,-1.97892 -15.67932,-2.36902 -1.37544,-0.19647 -1.46947,-0.21595 -1.80804,-0.37445 -1.33999,-0.62731 -2.74211,-1.8006 -4.90004,-4.10031 -0.46711,-0.4978 -0.8555,-0.89889 -0.86308,-0.8913 -0.008,0.008 0.13561,1.68809 0.31821,3.73447 l 0.33201,3.72068 0.15321,0.27396 c 0.83991,1.5019 2.06391,2.79542 3.47062,3.66774 1.37766,0.8543 3.19676,1.41524 5.0605,1.56047 0.64908,0.0506 0.39967,0.0562 -2.73219,0.0612 l -3.44648,0.006 z"
       id="path4676"
       transform="scale(0.26458333)"
       inkscape:export-xdpi="320"
       inkscape:export-ydpi="320" />
    <path
       style="opacity:1;fill:#ffffff;fill-opacity:1;stroke:#ffffff;stroke-width:0.555982;stroke-linecap:round;stroke-linejoin:round;stroke-miterlimit:4;stroke-dasharray:none;stroke-opacity:1"
       d="m 155.31095,210.04255 c 0,-0.0381 3.2717,-7.04125 7.27045,-15.56267 l 7.27044,-15.49348 9.60243,-16.57444 9.60243,-16.57445 4.75071,-3.45114 c 11.65302,-8.4653 14.54812,-10.56146 14.5869,-10.56146 0.0228,0 0.199,0.35513 0.39157,0.78918 0.19258,0.43405 0.36408,0.80614 0.38112,0.82686 0.017,0.0207 5.55468,-2.61138 12.30588,-5.84913 6.75119,-3.23774 12.2995,-5.86219 12.32958,-5.83211 0.0846,0.0846 -0.29276,2.12371 -0.41346,2.23437 -0.0588,0.0539 -1.55583,0.99507 -3.32676,2.09147 -5.39998,3.34319 -8.93337,5.00635 -12.02903,5.66203 -3.00813,0.63713 -5.45268,1.70596 -10.21413,4.46591 -1.55169,0.89943 -3.04996,1.75193 -3.32949,1.89444 -0.69534,0.35451 -6.91425,4.28815 -8.39373,5.30926 -0.65975,0.45536 -1.8692,1.33829 -2.68766,1.96208 -1.32936,1.01316 -1.6136,1.30368 -2.66452,2.72343 -1.41911,1.91715 -6.58093,9.27309 -11.88082,16.93097 -2.13884,3.09044 -3.9938,5.76869 -4.12214,5.95166 l -0.23334,0.33269 0.93144,0.64391 c 0.70396,0.48664 0.96171,0.60584 1.05536,0.48806 0.0682,-0.0857 1.8733,-2.68438 4.01144,-5.77482 4.55046,-6.57716 10.17192,-14.60335 11.7868,-16.82891 0.78931,-1.08779 1.3975,-1.7754 1.99584,-2.25643 2.68255,-2.15663 8.12052,-5.64843 14.33066,-9.20193 5.3476,-3.05995 7.09218,-3.83104 10.11675,-4.47152 3.27599,-0.69372 6.87514,-2.37402 12.2506,-5.71933 1.16798,-0.72686 2.14467,-1.30048 2.17044,-1.27472 0.0258,0.0258 0.0858,0.75585 0.13353,1.6224 l 0.0867,1.57554 -4.84563,3.23984 c -6.48655,4.33696 -9.09861,5.8886 -11.74044,6.97414 -2.07257,0.85163 -2.64268,0.94898 -5.85837,1.00035 -3.20052,0.0511 -3.94834,0.16145 -6.2541,0.92269 -2.71632,0.89679 -5.00866,2.41312 -7.70803,5.09871 -1.01217,1.007 -2.54562,2.65481 -3.40769,3.66181 -0.86206,1.00699 -2.19883,2.51275 -2.97061,3.34613 -0.77177,0.83337 -1.6579,1.91297 -1.96917,2.39911 -0.31127,0.48613 -3.17025,5.14546 -6.35328,10.35406 -3.18303,5.2086 -8.22983,13.44766 -11.21511,18.30902 -7.55138,12.29701 -8.16739,13.31076 -8.16739,13.44083 0,0.19238 1.49734,1.03743 1.76172,0.99425 0.25622,-0.0418 3.99808,-6.07622 19.16897,-30.9132 6.92386,-11.33539 7.1683,-11.71527 8.28746,-12.87944 0.63424,-0.65976 2.06149,-2.25054 3.17167,-3.53507 3.28105,-3.79635 5.27054,-5.63665 7.50336,-6.94069 2.61603,-1.52784 5.72926,-2.19841 9.54116,-2.05511 2.42761,0.0913 4.24613,-0.44963 7.9838,-2.37465 2.38328,-1.22747 4.5685,-2.58702 9.48701,-5.90242 3.93057,-2.64946 4.05063,-2.70808 4.05613,-1.98046 0.006,0.76988 1.50727,6.02183 1.76753,6.18268 0.11278,0.0697 3.6526,-1.27192 3.84299,-1.45651 0.0698,-0.0677 -0.0683,-0.67824 -0.34785,-1.53697 -0.98666,-3.03111 -1.47266,-6.04268 -1.47266,-9.12552 0,-1.60106 0.0675,-2.32721 0.38401,-4.12884 0.49543,-2.82034 0.59775,-4.7592 0.31861,-6.03731 -0.11375,-0.52086 -0.23731,-1.08908 -0.27457,-1.2627 -0.0649,-0.30241 0.0639,-0.37762 3.06666,-1.79065 l 3.13441,-1.47499 0.038,0.47929 c 0.0363,0.45775 -0.0998,1.91056 -0.55652,5.94308 -0.30536,2.69587 -0.28325,6.66324 0.0493,8.83884 0.14329,0.93754 0.35604,2.12263 0.47278,2.63351 0.18402,0.80534 0.26335,0.95649 0.59642,1.13643 1.82298,0.98481 3.5186,2.47208 5.98243,5.2473 1.8652,2.10094 2.44231,3.077 3.25436,5.504 0.65263,1.95052 0.87473,3.50244 0.78605,5.4924 -0.0402,0.90283 -0.12827,1.86747 -0.19565,2.14365 -0.21061,0.86328 -0.0457,1.02693 2.12787,2.11192 7.34989,3.66882 14.42545,5.04454 20.40347,3.9671 6.90433,-1.24439 12.97723,-5.48507 19.61679,-13.69831 l 1.16007,-1.43503 -0.27696,-0.45901 c -0.15233,-0.25245 -0.7526,-1.33515 -1.33393,-2.406 -1.27778,-2.35377 -1.91807,-3.27135 -2.94821,-4.22509 l -0.78279,-0.72473 0.23635,-1.66548 c 0.19355,-1.36388 0.23554,-2.4201 0.23186,-5.83237 -0.004,-3.63476 -0.0486,-4.58613 -0.34979,-7.44988 -0.18992,-1.80565 -0.37406,-3.42505 -0.40919,-3.59867 -0.0351,-0.17362 -0.74475,-1.13957 -1.57692,-2.14657 -0.83219,-1.007 -1.49025,-1.89071 -1.46234,-1.96381 0.0279,-0.0731 0.34823,-1.09588 0.71183,-2.27284 0.3636,-1.17697 0.67734,-2.15874 0.69719,-2.18173 0.0198,-0.023 0.69347,0.0284 1.49696,0.1143 l 1.46087,0.15609 0.0758,0.45391 c 0.26839,1.60688 1.22883,3.22481 3.14659,5.30062 1.58557,1.71624 1.98434,2.94279 2.00783,6.17566 0.0132,1.82382 0.028,1.93386 0.26657,1.98262 0.13889,0.0284 0.76393,0.11451 1.38896,0.19136 0.62503,0.0769 1.29268,0.16936 1.48366,0.20556 l 0.34724,0.0658 v -1.26527 c 0,-0.6959 0.0426,-1.28904 0.0947,-1.31809 0.0521,-0.029 2.19708,0.0208 4.76666,0.11076 12.115,0.42421 20.74087,0.65977 32.41958,0.88534 l 4.38785,0.0847 v -1.01746 -1.01745 l -0.66291,-0.068 c -0.3646,-0.0374 -2.87894,-0.10075 -5.58741,-0.14077 -8.61984,-0.12738 -31.54108,-0.76851 -34.97368,-0.97826 -0.48923,-0.0299 -0.50467,-0.0452 -0.59721,-0.59093 -0.0523,-0.30814 -0.077,-0.57821 -0.0551,-0.60015 0.0219,-0.022 0.91572,0.0223 1.98618,0.0983 2.98719,0.21219 13.36962,-0.047 16.21468,-0.40476 2.78619,-0.35039 8.1809,-0.38136 11.67989,-0.0671 4.95716,0.44528 8.01394,0.69622 8.04936,0.6608 0.0203,-0.0203 0.0726,-0.49981 0.11623,-1.06558 0.0749,-0.97126 0.0652,-1.02867 -0.17347,-1.02867 -0.13903,0 -2.26404,-0.18262 -4.72223,-0.40581 -4.03692,-0.36653 -4.91545,-0.40609 -9.07827,-0.40882 -4.29539,-0.003 -4.78485,0.0202 -7.19733,0.33823 -5.02138,0.66197 -8.15702,0.72317 -14.64722,0.28589 -1.49313,-0.1006 -2.75658,-0.18412 -2.80766,-0.1856 -0.12266,-0.004 -0.86057,-1.46941 -0.78018,-1.5498 0.0342,-0.0342 0.30151,-0.0405 0.59393,-0.0138 2.51205,0.22878 4.84725,0.5083 7.84366,0.93888 1.93816,0.2785 3.5637,0.46137 3.61231,0.40638 0.0486,-0.055 0.15033,-0.49008 0.22605,-0.96684 0.0757,-0.47676 0.16426,-0.89342 0.19675,-0.92591 0.0325,-0.0325 0.59901,0.009 1.25892,0.0919 1.79065,0.22539 5.42548,0.0964 6.71314,-0.23817 1.53204,-0.3981 5.90466,-0.90221 7.81829,-0.90134 5.00907,0.002 9.28764,1.68307 14.78388,5.80776 2.80039,2.10158 4.38719,3.54451 9.22207,8.38597 4.65837,4.66469 6.18452,6.382 8.04892,9.05709 l 0.84862,1.21762 v 22.15246 22.15248 l -4.76069,-1.11482 c -2.61837,-0.61315 -4.79854,-1.07236 -4.84481,-1.02046 -0.088,0.0988 -6.63094,17.95036 -7.3452,20.04064 l -0.4113,1.20362 0.8654,6.02943 c 0.47597,3.31619 0.89503,6.18569 0.93123,6.37667 l 0.0658,0.34724 h -1.51092 -1.51091 l -0.14246,-0.66291 c -1.20852,-5.62423 -1.7828,-10.64695 -1.88042,-16.44655 l -0.0702,-4.16688 0.33256,-1.21889 c 1.2398,-4.54406 2.70723,-7.43525 4.3157,-8.50288 0.78303,-0.51975 0.75529,-0.33206 0.32653,-2.20978 -0.15405,-0.67458 -0.277,-0.95788 -0.42839,-0.98704 -0.42925,-0.0827 -1.84665,0.73493 -2.64808,1.52749 -1.75047,1.7311 -2.98955,4.26149 -4.35955,8.90287 l -0.47356,1.60435 0.002,4.23001 c 0.003,5.93105 0.42253,10.09401 1.68218,16.69909 l 0.23479,1.23112 h -1.23522 c -1.06762,0 -1.24396,-0.03 -1.29975,-0.22097 -0.0914,-0.31283 -0.28663,-2.45694 -0.58356,-6.40816 -0.31581,-4.20228 -0.59856,-6.94 -0.77287,-7.48363 -0.16389,-0.51108 -0.73268,-0.83697 -1.25903,-0.72137 -0.2674,0.0587 -0.67829,0.44188 -1.46427,1.3654 -2.26874,2.66575 -6.07491,6.19059 -8.78332,8.13408 -1.7819,1.27865 -4.60832,3.0846 -6.74455,4.30944 l -1.78809,1.02521 H 291.06996 265.6871 l 0.85751,-1.67307 c 0.47162,-0.92018 1.04186,-2.1309 1.26717,-2.69049 l 0.40967,-1.01743 -1.5333,-9.71544 c -0.84331,-5.34349 -1.59353,-10.06982 -1.66714,-10.50294 -0.12596,-0.74109 -0.2029,-0.8676 -1.30554,-2.14658 -3.62659,-4.20656 -7.40105,-6.12704 -10.98882,-5.5912 -2.69391,0.40233 -5.11033,2.11288 -7.02521,4.97304 -1.06642,1.59287 -2.56291,4.68415 -2.54484,5.25687 0.025,0.79198 2.81727,19.61677 3.00609,20.26619 0.14211,0.48878 0.41455,0.88082 1.20653,1.7362 l 1.02296,1.10485 h -2.03076 c -1.11693,0 -2.03077,-0.0247 -2.03077,-0.0548 0,-0.0301 -0.85071,-4.85083 -1.89046,-10.71267 -2.00577,-11.308 -2.11093,-11.76654 -3.19193,-13.91815 -1.06995,-2.12965 -2.15046,-3.32768 -3.63018,-4.02503 -0.75123,-0.35403 -0.9336,-0.38711 -2.15312,-0.39059 -1.29482,-0.004 -1.36011,0.01 -2.31643,0.48255 -2.09669,1.03624 -3.74769,3.29579 -5.63384,7.71045 -0.33888,0.79316 -0.48444,1.27952 -0.40632,1.35764 0.0669,0.0669 1.53567,0.68115 3.26384,1.3649 2.35146,0.93035 3.1763,1.20628 3.27794,1.09656 0.0747,-0.0806 0.29726,-0.54436 0.49459,-1.03049 0.19732,-0.48614 0.528,-1.22481 0.73484,-1.6415 l 0.37607,-0.75761 0.17054,0.4911 c 0.14714,0.42371 3.58085,19.48982 3.58085,19.88314 0,0.10729 -2.67708,0.14448 -10.39995,0.14448 h -10.39994 l -0.92198,-1.39439 c -0.50708,-0.76691 -0.97161,-1.42506 -1.03227,-1.46255 -0.0808,-0.05 -1.76497,0.99789 -2.48028,1.54316 -0.024,0.0183 0.13221,0.28906 0.34724,0.60161 0.21504,0.31255 0.39098,0.60065 0.39098,0.64022 0,0.0396 -0.81491,0.0719 -1.8109,0.0719 h -1.81091 l -0.77167,-1.19956 c -0.42442,-0.65975 -0.82825,-1.19955 -0.8974,-1.19955 -0.0691,0 -0.47541,0.5398 -0.9028,1.19955 l -0.77708,1.19956 h -25.11456 c -13.81301,0 -25.11457,-0.0311 -25.11457,-0.0692 z m 53.743,-25.34247 c 1.94831,-3.10632 3.80022,-5.39328 6.72635,-8.30645 4.45663,-4.43692 9.45834,-8.14583 18.89076,-14.00806 8.71894,-5.4188 11.12541,-6.98269 14.33169,-9.3137 3.94921,-2.87114 4.95648,-4.45686 4.95419,-7.79931 -8.9e-4,-1.36599 -0.0102,-1.40986 -0.55812,-2.65326 -0.59901,-1.35927 -1.46042,-2.77283 -2.28744,-3.75362 -0.61619,-0.73077 -2.04309,-1.83657 -2.96109,-2.29475 l -0.66292,-0.33086 0.004,0.85444 c 0.002,0.46995 0.0857,1.22378 0.18496,1.6752 0.30503,1.38673 0.24936,2.2388 -0.2058,3.14965 -0.3216,0.64359 -0.91534,1.31364 -3.18829,3.59811 -3.84251,3.86198 -5.76354,5.4276 -16.83376,13.7194 -3.69438,2.76716 -7.41531,5.61541 -8.26872,6.32945 -7.51178,6.28499 -11.74238,13.70421 -11.13393,19.52561 0.0446,0.42688 0.12477,0.77614 0.17812,0.77614 0.0533,0 0.42665,-0.5256 0.82956,-1.16799 z m 73.41963,-19.78419 c 2.5346,-0.71314 4.88636,-1.7666 6.79739,-3.04487 2.36948,-1.58492 3.67403,-3.25785 5.33467,-6.84107 0.55598,-1.19968 1.0723,-2.30933 1.14735,-2.46588 0.0751,-0.15655 0.10198,-0.31912 0.0598,-0.36127 -0.10115,-0.10115 -2.12006,1.22904 -4.32068,2.84674 -3.4777,2.5565 -5.79815,3.91497 -8.73439,5.11342 l -1.41078,0.57582 -1.80908,-0.12286 c -4.14428,-0.28144 -10.62685,-0.41529 -13.06719,-0.26982 -2.38572,0.14222 -4.60114,0.54368 -4.61545,0.83637 -0.009,0.19253 2.94402,1.50978 4.50935,2.01119 3.32569,1.0653 7.52766,1.66597 14.53061,2.07715 0.14422,0.008 0.85448,-0.15124 1.57837,-0.35492 z m 65.95875,-17.20918 c 0.2883,-0.4116 0.24232,-0.67514 -0.17529,-1.00447 -0.51828,-0.40872 -1.51171,-1.67501 -2.6675,-3.40016 -1.79081,-2.67297 -2.69196,-3.54128 -4.74879,-4.5757 -1.29059,-0.64907 -2.34407,-0.90645 -5.5167,-1.34783 -1.53694,-0.21383 -7.28332,-1.07177 -12.76971,-1.90654 -5.4864,-0.83478 -12.73409,-1.93342 -16.10599,-2.44143 -6.72983,-1.01392 -6.63664,-0.98948 -8.13953,-2.13433 -0.90664,-0.69064 -2.39746,-2.11156 -3.39754,-3.23822 l -0.72852,-0.82075 0.0672,0.44194 c 0.0369,0.24307 0.19225,1.91929 0.34515,3.72494 0.25291,2.98687 0.3066,3.33425 0.59529,3.85121 0.82579,1.47874 2.49539,3.07297 4.00421,3.82342 1.95971,0.97471 3.92952,1.29719 7.76555,1.2713 16.56686,-0.11181 16.1534,-0.11447 18.43528,0.11864 6.28898,0.64248 10.92201,1.63265 14.0218,2.99674 1.25932,0.55417 2.90993,1.46398 4.66602,2.57188 2.33415,1.4726 3.82258,2.35 3.98656,2.35 0.0913,0 0.25445,-0.12629 0.36256,-0.28064 z"
       id="path4678"
       transform="scale(0.26458333)"
       inkscape:export-xdpi="320"
       inkscape:export-ydpi="320" />
  </g>
</svg>
